<svg xmlns="http://www.w3.org/2000/svg" width="200" height="200" viewBox="0 0 52.917 52.917"><rect width="52.917" height="52.917" y="-.001" rx="14.552" ry="14.552" style="display:inline;fill:#000;fill-opacity:1;fill-rule:nonzero;stroke:none;stroke-width:.5;stroke-linecap:butt;stroke-linejoin:round;stroke-miterlimit:4;stroke-dasharray:none;stroke-dashoffset:0;stroke-opacity:.909449;paint-order:normal"/><path d="M15.742 2.645h21.432c7.24-.016 13.112 5.857 13.096 13.097v9.128c0 6.553-.73 12.304-11.906 12.304H14.55c-12.082 0-11.906-6.917-11.906-12.304v-9.128C2.629 8.502 8.502 2.629 15.742 2.645Z" style="display:inline;fill:#fec62b;stroke-width:.450003;stroke-linejoin:round;stroke-opacity:.909449;fill-opacity:1"/><path d="M52.916 37.173v1.191a14.52 14.52 0 0 1-14.552 14.552H14.552A14.52 14.52 0 0 1 0 38.364v-1.19z" style="display:inline;fill:#000;stroke-width:.5;stroke-linejoin:round;stroke-opacity:.909449"/><path d="M15.742 2.645v34.529h-1.19c-12.083 0-11.907-6.917-11.907-12.304v-9.128C2.629 8.502 8.502 2.629 15.742 2.645Z" style="display:inline;fill:#fc8922;fill-opacity:1;stroke-width:.450003;stroke-linejoin:round;stroke-opacity:.909449"/><path d="M22.629 40.09c-4.494-.628-9.471-3.233-10.014-5.242-.936-3.471-1.172-8.02-.552-10.663.265-1.129.51-2.091.542-2.138.033-.048 1.423.184 3.09.514 2.366.47 4.464.634 9.592.752 6.53.15 6.856.127 13.463-.91.7-.11.838.01 1.369 1.198.475 1.064.615 2.05.72 5.074.187 5.448-.582 9.008-1.844 8.524-.318-.122-.336-.073-.084.232.406.49.001.86-1.529 1.4-3.112 1.098-11.05 1.775-14.753 1.258zm17.295-3.592a.57.57 0 0 0 .007-.546c-.23-.371-.984-.037-.984.436 0 .446.719.527.976.11zm-1.036-.875c.102-.53-.532-.844-1.053-.522-.506.313-.115 1.18.48 1.066.268-.052.525-.296.573-.544zm-1.413-.833c.383-.383.155-1.081-.354-1.081-.49 0-.773.483-.578.99.186.485.507.516.932.091zm-1.22-1.579c1.29-1.147 1.667-3.647.809-5.355-1.398-2.782-5.885-3.301-7.521-.87-1.353 2.01-.426 5.171 1.873 6.385 1.05.554 1.503.634 2.777.49.838-.094 1.765-.386 2.061-.65zm-15.497-1.625c.467-.093 1.267-.523 1.778-.955.856-.723.894-.822.482-1.244-.414-.425-.525-.406-1.503.258-1.736 1.178-4.723.739-5.56-.818-.64-1.19-1.276-1.137-1.276.107 0 1.845 3.18 3.232 6.079 2.652zm-.5-9.317c-2.558-.25-6.516-1.04-7.735-1.544-1.687-.698-2.865-1.854-2.865-2.813 0-1.159.381-1.419 2.416-1.65l1.714-.193.347-1.239c.385-1.374 2.115-3.351 3.647-4.167 1.305-.695 4.21-.693 5.758.004 1.147.516 1.259.517 4.66.024 4.07-.59 5.674-.382 7.774 1.01 1.246.824 2.694 3.07 2.694 4.177 0 .38.341.493 1.784.584 2.176.139 2.68.505 2.68 1.95 0 1.079-.024 1.103-1.991 2.046-1.095.525-2.57 1.03-3.278 1.121-.708.093-2.407.349-3.777.57-2.628.424-10.049.488-13.828.12z" style="fill:#000;stroke-width:.278947"/><path d="m15.29 46.955.25 1.324q-.304.245-.739.43-.434.184-.909.29-.47.104-.9.104-1.033 0-1.777-.45-.745-.449-1.144-1.273-.4-.824-.4-1.948 0-.964.275-1.689.28-.73.764-1.214.485-.484 1.109-.724.63-.245 1.324-.245.69 0 1.234.155.55.155 1.089.545l-.35 1.198q-.475-.374-.944-.534-.465-.165-.954-.165-.605 0-1.09.285-.479.285-.759.85-.274.564-.274 1.413 0 1.204.55 1.888.554.684 1.523.684.564 0 1.139-.25.574-.254.984-.674zm2.923-.874v2.897h-1.399v-5.644q0-.805-.01-1.414-.01-.615-.065-.934h1.474v3.747q.37-.475.89-.71.524-.24 1.058-.24 1.524 0 1.524 2.073v3.122h-1.399V46.23q0-.728-.19-.973-.184-.25-.584-.25-.285 0-.55.165-.264.16-.464.405-.195.244-.285.504zm9.946 2.897H26.83q-.07-.12-.135-.394-.065-.28-.105-.58-.035-.304-.035-.49v-.284q-.184.43-.514.864-.33.43-.77.72-.439.29-.964.29-.629 0-1.064-.555-.434-.56-.434-1.619 0-.594.175-1.154.175-.564.54-1.014.364-.45.928-.714.565-.265 1.34-.265.544 0 1.078.065.54.06.964.16v2.323q0 .944.09 1.588.09.64.235 1.06zm-1.753-3.646v-.33q-.105-.025-.305-.06-.2-.04-.52-.04-.524 0-.824.29-.3.29-.425.754-.124.465-.124.984 0 .44.16.715.164.27.39.27.209 0 .434-.21.23-.21.444-.535.215-.325.39-.684.175-.36.275-.67.105-.314.105-.484zm6.698-1.149-.194 1.174q-.28-.145-.71-.31-.424-.165-.944-.165-.44 0-.61.15-.164.15-.164.3 0 .12.065.205.07.084.28.16.214.07.654.16.52.1.949.284.435.18.69.485.26.304.26.779 0 .48-.29.864-.29.385-.785.61-.49.224-1.099.224-.67 0-1.234-.17-.564-.174-.889-.404l.275-1.224q.37.305.899.49.535.184.974.184.355 0 .575-.135.224-.14.224-.314 0-.22-.23-.385-.23-.17-.944-.325-.709-.154-1.084-.37-.37-.214-.504-.484-.135-.27-.135-.584 0-.185.1-.45.1-.27.34-.53.244-.264.664-.439.425-.18 1.069-.18.61 0 1.06.13.449.125.738.27zm4.746 3.392v1.119q-.355.224-.684.314-.33.095-.6.095-.47 0-.859-.125-.39-.13-.624-.45-.23-.324-.23-.898v-5.246h1.399v4.287q0 .564.064.839.065.274.205.36.14.08.365.08.36 0 .964-.375zm-.075-2.618h-3.871v-.999h3.871zm5.445 1.773h-3.836v-.899h2.562q0-.524-.23-.759-.224-.24-.669-.24-.54 0-.804.375-.26.37-.26 1.249 0 .794.32 1.159.32.364.939.364.49 0 .959-.115.475-.114.94-.39l.104 1.13q-.54.274-1.044.384-.5.115-1.084.115-.66 0-1.229-.294-.57-.295-.919-.875-.345-.58-.345-1.428 0-.83.3-1.439.305-.61.864-.944.56-.34 1.329-.34.63 0 1.034.22.41.215.64.58.234.364.33.819.094.45.094.919v.205q.005.135.005.204z" aria-label="Chaste" style="font-weight:700;font-size:10.2306px;font-family:Andika;-inkscape-font-specification:&quot;Andika Bold&quot;;text-align:center;text-anchor:middle;opacity:.99;fill:#fc8922;stroke-width:.264585"/></svg>