<svg xmlns="http://www.w3.org/2000/svg" width="200" height="200" viewBox="0 0 52.917 52.917"><defs><clipPath id="a" clipPathUnits="userSpaceOnUse"><path d="M15.742 2.645h21.432c7.24-.016 13.112 5.857 13.096 13.097v9.128c0 6.553-.73 12.304-11.906 12.304H14.55c-12.082 0-11.906-6.917-11.906-12.304v-9.128C2.629 8.502 8.502 2.629 15.742 2.645Z" style="display:inline;fill:#484862;fill-opacity:1;stroke-width:.450004;stroke-linejoin:round;stroke-opacity:.909449"/></clipPath></defs><rect width="52.917" height="52.917" y="-.001" rx="14.552" ry="14.552" style="display:inline;fill:#000;fill-opacity:1;fill-rule:nonzero;stroke:none;stroke-width:.5;stroke-linecap:butt;stroke-linejoin:round;stroke-miterlimit:4;stroke-dasharray:none;stroke-dashoffset:0;stroke-opacity:.909449;paint-order:normal"/><path d="M15.742 2.645h21.432c7.24-.016 13.112 5.857 13.096 13.097v9.128c0 6.553-.73 12.304-11.906 12.304H14.55c-12.082 0-11.906-6.917-11.906-12.304v-9.128C2.629 8.502 8.502 2.629 15.742 2.645Z" style="display:inline;fill:#484862;stroke-width:.450003;stroke-linejoin:round;stroke-opacity:.909449;fill-opacity:1"/><path d="M52.916 37.173v1.191a14.52 14.52 0 0 1-14.552 14.552H14.552A14.52 14.52 0 0 1 0 38.364v-1.19z" style="display:inline;fill:#000;stroke-width:.5;stroke-linejoin:round;stroke-opacity:.909449"/><path d="M21.208 39.455c-3.587-.383-7.104-2.681-8.581-5.607-1.57-3.109-1.878-4.224-1.89-6.828-.012-2.717.378-4.519 1.494-6.913.895-1.92 4.255-5.303 6.38-6.424 2.051-1.082 5.42-1.888 7.874-1.885 3.693.005 5.7.91 7.941 3.579 3.558 4.236 5.47 11.484 4.199 15.91-.432 1.5-1.877 4.265-2.714 5.19-.577.637-2.446 1.614-4.175 2.181-2.266.744-7.395 1.132-10.528.797zm12.15-9.093c1.678-.7 1.984-1.315 2.26-4.537.114-1.336.074-1.581-.302-1.845-.243-.17-.422-.557-.408-.876.035-.81-1.293-1.231-3.473-1.1-1.429.086-1.8.206-2.742.885-.6.432-1.284 1.148-1.52 1.59-.88 1.648-.326 4.232 1.131 5.27 1.324.943 3.604 1.22 5.054.613zM20.62 29.285c1.903-1.26 2.178-3.011.892-5.692-.782-1.63-1.748-2.097-4.352-2.104-1.918-.006-2.411.191-2.411.963 0 .229-.15.416-.332.416-.579 0-.696.518-.622 2.76.058 1.76.164 2.314.548 2.853.676.95 2.093 1.526 3.769 1.532 1.194.005 1.566-.103 2.508-.728zm18.525-6.297c-.33-1.33-.869-3.007-1.2-3.729l-.6-1.311.466-.496c.257-.273.466-.62.466-.77 0-.653 1.576-.016 3.966 1.604 2.19 1.484 2.556 2.54 1.404 4.05-.583.765-3.398 3.069-3.749 3.069-.085 0-.425-1.088-.753-2.417zm-3.477-7.618c-.61-.825-1.566-1.88-2.123-2.346-.557-.466-1.129-.831-1.064-.936.065-.105.889-.293 1.623-.293 1.115 0 1.492.114 2.281.685 1.121.812 1.432 1.326 1.428 2.357-.004.813-.55 2.018-.931 2.144-.127.041-.604-.786-1.214-1.61zm-5.349-3.95c-.648-.173-2.346-.31-3.879-.312-3.099-.005-3.045.053-1.864-2.006 1.173-2.045 2.315-2.36 4.443-1.226 1.65.879 4.266 3.201 3.625 3.217-.244.006-.607.151-.807.323-.306.263-.55.264-1.518.005z" clip-path="url(#a)" style="fill:#000;stroke:#9989ff;stroke-width:1.40504;stroke-linecap:round;stroke-linejoin:bevel;stroke-dasharray:none;stroke-opacity:1;paint-order:stroke fill markers"/><path d="M8.557 46.59v-2.534q0-.683-.01-1.27-.009-.59-.06-.87.153-.009.423-.018.275-.01.595-.014.326-.01.642-.01.321-.004.572-.004.386 0 .847.075.46.07.916.274.46.2.837.577.382.376.61.981.232.605.232 1.488 0 .828-.228 1.428-.223.596-.605.996-.376.4-.841.632-.46.233-.95.335-.483.098-.915.098-.238 0-.596-.01-.353-.004-.707-.014-.353-.009-.595-.018l-.237-.005q.051-.279.056-.851.009-.577.014-1.265zm1.325-3.655v4.698q.135.014.354.032.223.014.497.014.521 0 1.005-.228.484-.228.795-.74.316-.51.316-1.353 0-.925-.274-1.46-.27-.535-.744-.758-.474-.228-1.08-.228-.19 0-.455.01-.265.004-.414.013zm5.581 1.028h1.372v2.534q0 .299.01.726.014.424.032.828.023.405.051.656h-1.395v-2.464q0-.68-.014-1.294-.01-.618-.056-.986zm-.093-1.697q0-.359.228-.586.233-.228.586-.228.358 0 .586.228.228.227.228.586 0 .362-.228.59-.228.224-.586.224-.353 0-.586-.224-.228-.228-.228-.59zm6.512 1.976-.182 1.093q-.26-.135-.66-.288-.396-.154-.88-.154-.409 0-.567.14-.153.14-.153.279 0 .112.06.19.065.08.26.15.2.065.61.148.484.093.884.265.404.168.641.452.242.283.242.725 0 .447-.27.805-.27.358-.73.567-.455.21-1.023.21-.623 0-1.149-.159-.525-.163-.827-.376l.255-1.14q.344.284.837.456.498.172.907.172.33 0 .535-.126.21-.13.21-.293 0-.204-.214-.358-.214-.158-.88-.302-.66-.144-1.009-.344-.344-.2-.47-.451-.125-.252-.125-.545 0-.172.093-.418.093-.251.316-.493.228-.247.619-.41.395-.167.995-.167.568 0 .986.121.419.116.689.251zm2.744-2.976v5.232q0 .298.009.72.014.424.032.829.024.404.052.66h-1.396v-5.255q0-1.363-.093-2.186zm1.604 2.697h1.372v2.534q0 .299.01.726.013.424.032.828.023.405.051.656H26.3v-2.464q0-.68-.014-1.294-.01-.618-.056-.986zm-.093-1.697q0-.359.228-.586.233-.228.586-.228.358 0 .586.228.228.227.228.586 0 .362-.228.59-.228.224-.586.224-.353 0-.586-.224-.228-.228-.228-.59zm4.233 6.441h-1.303v-5.255q0-.75-.01-1.317-.008-.572-.06-.87h1.372zm1.432-4.744h1.744L31.1 46.251l-1.019-.195zm-1.735 2.093.884-.437 2.735 3.088h-1.707zm8.363.558h-3.572v-.837h2.385q0-.488-.213-.707-.21-.223-.624-.223-.502 0-.749.349-.241.344-.241 1.162 0 .74.297 1.08.298.339.875.339.455 0 .893-.107.441-.107.874-.363l.098 1.051q-.503.256-.972.358-.465.107-1.01.107-.614 0-1.144-.274-.53-.274-.855-.814-.321-.54-.321-1.33 0-.772.279-1.34.283-.567.804-.879.521-.316 1.237-.316.586 0 .963.205.382.2.595.54.22.339.307.762.089.419.089.856v.19q.004.126.004.191zm5.65-5.348v4.976q0 .88.098 1.48.102.594.251.985H43.15q-.051-.112-.125-.34-.07-.232-.13-.474-.312.447-.717.689-.405.241-.888.241-.572 0-1.01-.279-.432-.279-.679-.786-.241-.511-.241-1.19 0-.824.307-1.428.307-.605.823-.935.52-.335 1.149-.335.274 0 .58.121.308.121.559.274v-1.302q0-.558-.028-.981-.023-.423-.088-.716zm-1.302 5.58v-1.571q-.32-.158-.567-.224-.247-.065-.572-.065-.242 0-.47.172-.223.173-.368.493-.14.321-.14.777 0 1.349.885 1.349.246 0 .488-.135t.437-.349q.195-.214.307-.446z" aria-label="Disliked" style="font-weight:700;font-size:9.52506px;font-family:Andika;-inkscape-font-specification:&quot;Andika Bold&quot;;text-align:center;text-anchor:middle;opacity:.99;fill:#9989ff;stroke-width:.264585"/></svg>