<svg xmlns="http://www.w3.org/2000/svg" width="200" height="200" viewBox="0 0 52.917 52.917"><rect width="52.917" height="52.917" y="-.001" rx="14.552" ry="14.552" style="display:inline;fill:#000;fill-opacity:1;fill-rule:nonzero;stroke:none;stroke-width:.5;stroke-linecap:butt;stroke-linejoin:round;stroke-miterlimit:4;stroke-dasharray:none;stroke-dashoffset:0;stroke-opacity:.909449;paint-order:normal"/><path d="M15.742 2.645h21.432c7.24-.016 13.112 5.857 13.096 13.097v9.128c0 6.553-.73 12.304-11.906 12.304H14.55c-12.082 0-11.906-6.917-11.906-12.304v-9.128C2.629 8.502 8.502 2.629 15.742 2.645Z" style="display:inline;fill:#101010;stroke-width:.450003;stroke-linejoin:round;stroke-opacity:.909449;fill-opacity:1"/><path d="M26.325 2.645h10.849c7.24-.016 13.112 5.857 13.096 13.097v9.128c0 6.553-.73 12.304-11.906 12.304H26.193s8.213-2.97 7.441-8.632c-.77-5.663-14.615-12.32-14.75-17.265-.135-4.944 7.441-8.632 7.441-8.632Z" style="display:inline;fill:#981900;fill-opacity:1;stroke-width:.450003;stroke-linejoin:round;stroke-opacity:.909449"/><path d="M26.299 16.724h11.426v14.49H26.299z" style="fill:#981900;fill-opacity:1;stroke-width:.591125;stroke-linecap:round;stroke-linejoin:round;paint-order:stroke fill markers"/><path d="M21.58 37.804c-1.078-.298-2.209-.67-2.513-.828-2.002-1.032-5.211-3.089-6.074-3.894-2.484-2.317-3.622-7.608-2.543-11.827.672-2.629 1.988-4.968 4.4-7.82 3.773-4.463 5.981-5.76 10.19-5.985 1.931-.104 2.682-.012 4.762.582 3.94 1.124 5.698 2.247 8.174 5.223 1.405 1.687 1.602 2.31.8 2.519-.278.073-.574.404-.658.735-.083.333-.496.746-.922.923a4.64 4.64 0 0 0-1.345.93c-.347.37-.768.56-1.067.481-.784-.205-6.443 2.852-7.376 3.984-.552.67-.268 4.223.412 5.152.982 1.34 2.037 1.668 5.073 1.582 2.61-.075 2.764-.112 3.307-.79.459-.572.664-.658 1.053-.438.265.15 1.098.206 1.852.125 2.738-.293 3.07-.22 2.819.618-1.056 3.537-2.586 5.633-5.084 6.967-4.398 2.349-3.575 2.138-8.67 2.224-4.012.069-4.89.007-6.59-.463zm1.232-9.338c1.184-.747 1.921-2.217 1.916-3.818-.007-2.007-.086-2.085-4.029-4.06-4.209-2.11-4.02-2.12-5.355.332-.649 1.192-.72 1.551-.608 3.103.142 1.97.887 3.696 1.876 4.344 1.753 1.149 4.469 1.192 6.2.1zm7.07-.426c-.938-.38-1.25-1.03-1.374-2.86l-.12-1.783 2.206-1.232c4.078-2.277 3.838-2.206 4.583-1.357.744.848 1.46 2.733 1.46 3.84 0 .866-.6 2.175-1.4 3.049-.481.526-.79.593-2.68.578-1.176-.009-2.38-.115-2.676-.235zm7.818-1.402c.005-.766.39-1.371.736-1.158.148.092.535.069.859-.051.405-.15.886-.067 1.536.264.52.265 1.088.482 1.262.482.186 0 .259.218.177.53-.162.62-.19.627-.854.213-.392-.245-.662-.245-1.2 0-.38.173-1.104.316-1.607.316-.772 0-.913-.093-.91-.596zm4.097-2.046a9.11 9.11 0 0 1-1.228-.506c-.482-.242-.842-.27-1.162-.091-.497.278-1.447.14-1.447-.21 0-.117-.071-.399-.159-.626-.136-.356-.043-.374.65-.132.626.218.976.194 1.548-.105 1.54-.805 2.199-1.064 2.341-.922.082.081.112.733.067 1.447-.072 1.158-.139 1.283-.61 1.145zm-3.175-2.915c-.09-.145-.45-.264-.8-.264-.684 0-1.185-.67-1.185-1.583 0-.357.304-.721.841-1.01.463-.247 1.286-.905 1.83-1.462l.989-1.011.66 1.144c.364.629.781 1.59.928 2.136.248.925.227.992-.313.992-.318 0-1.016.298-1.552.661-1.096.745-1.17.766-1.398.397z" style="fill:#fff;stroke-width:.264585;fill-opacity:1"/><path d="M52.916 37.173v1.191a14.52 14.52 0 0 1-14.552 14.552H14.552A14.52 14.52 0 0 1 0 38.364v-1.19z" style="display:inline;fill:#000;stroke-width:.5;stroke-linejoin:round;stroke-opacity:.909449"/><path d="M16.343 43.478h2.764v1.137h-2.763v2.123h1.303q.723 0 1.208-.01.491-.016.784-.066v1.239h-4.812q.056-.304.066-.875.01-.576.01-1.324v-2.983q0-.748-.01-1.319-.01-.576-.066-.88h4.661v1.163h-3.144zm9.488-3.665v5.409q0 .954.106 1.607.111.647.273 1.072h-1.39q-.056-.122-.137-.37-.076-.252-.142-.515-.338.485-.778.748t-.965.263q-.621 0-1.097-.303-.47-.304-.738-.854-.263-.556-.263-1.295 0-.894.334-1.552.333-.656.894-1.016.566-.363 1.249-.363.299 0 .632.131.334.131.606.298v-1.416q0-.606-.03-1.066-.026-.46-.096-.778zm-1.416 6.066v-1.71q-.348-.171-.617-.24-.267-.073-.621-.073-.263 0-.511.188-.242.187-.399.535-.152.35-.152.845 0 1.465.96 1.465.269 0 .532-.146.262-.147.474-.38.213-.232.334-.484zm7.532-2.856v4.751q0 .667-.212 1.143-.213.475-.57.773-.355.303-.8.445-.44.141-.894.141-.674 0-1.209-.181-.53-.182-.889-.476l.43-1.056q.318.257.681.42.37.16.784.16.32 0 .607-.115.293-.116.474-.38.182-.262.182-.697v-.934q-.384.47-.839.692-.45.218-.854.218-.449 0-.848-.223-.4-.223-.648-.708-.247-.49-.247-1.294 0-.581.16-1.127.168-.546.512-.98.343-.44.88-.693.535-.257 1.284-.257.495 0 1.03.12.541.121.986.259zm-1.416 2.775v-1.75q-.393-.202-.782-.202-.446 0-.719.238-.272.238-.4.607-.12.363-.12.758 0 .738.237 1.006.238.268.597.268.278 0 .612-.238.338-.242.575-.687zm5.086 1.041-.667 1.476-1.46-3.776q-.137-.349-.33-.773-.187-.43-.48-1.021h1.582zm1.739-2.3-1.214 3.362q-.353.975-.717 1.485-.359.516-.753.703-.395.187-.855.187-.708 0-1.288-.43l.353-1.1q.162.13.425.251.263.127.51.127.157 0 .314-.086.162-.087.334-.334.172-.242.364-.718l.191-.454q.121-.278.243-.567.127-.288.203-.515.212-.734.409-1.436.197-.703.359-1.289.166-.591.273-.98h1.582q-.263.587-.434 1.016-.173.424-.3.778z" aria-label="Edgy" style="font-weight:700;font-size:11.9945px;font-family:Andika;-inkscape-font-specification:&quot;Andika Bold&quot;;text-align:center;text-anchor:middle;opacity:.99;fill:#981900;stroke-width:.228363"/></svg>