<svg xmlns="http://www.w3.org/2000/svg" width="200" height="200" viewBox="0 0 52.917 52.917"><rect width="52.917" height="52.917" y="-.001" rx="14.552" ry="14.552" style="display:inline;fill:#000;fill-opacity:1;fill-rule:nonzero;stroke:none;stroke-width:.5;stroke-linecap:butt;stroke-linejoin:round;stroke-miterlimit:4;stroke-dasharray:none;stroke-dashoffset:0;stroke-opacity:.909449;paint-order:normal"/><path d="M15.742 2.645h21.432c7.24-.016 13.112 5.857 13.096 13.097v9.128c0 6.553-.73 12.304-11.906 12.304H14.55c-12.082 0-11.906-6.917-11.906-12.304v-9.128C2.629 8.502 8.502 2.629 15.742 2.645Z" style="display:inline;fill:#141414;stroke-width:.450003;stroke-linejoin:round;stroke-opacity:.909449;fill-opacity:1"/><path d="M52.916 37.173v1.191a14.52 14.52 0 0 1-14.552 14.552H14.552A14.52 14.52 0 0 1 0 38.364v-1.19z" style="display:inline;fill:#000;stroke-width:.5;stroke-linejoin:round;stroke-opacity:.909449"/><path d="M27.122 3.815c-.38-.008-.784.017-1.26.057-2.474.208-4.446 1.057-7.501 3.231-.7.498-1.98 1.104-2.846 1.347-2.04.573-3.426 1.983-3.419 3.481.008 1.684.684 2.065 4.097 2.307 1.6.114 3.803.286 4.895.382 1.091.096 4.544.13 7.673.077 8.44-.145 11.075-.948 11.103-3.387.01-.928-.481-1.462-1.877-2.039-.529-.218-1.995-1.033-3.258-1.812-4.747-2.927-5.96-3.606-7.607-3.644zm11.98 10.37a.853.853 0 0 0-.22.067c-.256.108-1.346.414-2.425.68-1.601.396-3.182.494-8.6.535-3.65.027-8.006-.085-9.68-.25-5.732-.564-5.556-.588-5.556.76 0 .685.708 1.005 2.826 1.277 2.502.322 13.678.331 16.886.014 5.911-.583 7.465-.957 7.17-1.725a3.195 3.195 0 0 1-.159-.95c0-.307-.061-.429-.241-.408zm.078 3.103c-.128 0-1.245.188-2.482.416-3.259.603-18.64.828-21.497.315l-2.05-.368v.96c0 .58.2 1.174.508 1.505.537.577.935.678 4.518 1.152 1.237.163 2.309.362 2.382.441.219.24 10.465-.17 14.122-.563 3.942-.425 4.373-.672 4.594-2.637.076-.672.033-1.22-.095-1.22zm-27.028 2.128-.536 1.251c-.66 1.541-1.38 4.94-1.367 6.466.025 3.096 1.535 8.125 2.956 9.85.045.054.097.11.153.166.384.016.78.025 1.193.025h21.993c-.375-2.351-.71-2.536-3.903-2.454-2.939.074-5.358-.639-6.411-1.89-.648-.77-.688-.972-.603-3.002.08-1.917.187-2.313.895-3.323.95-1.355 3.026-2.587 4.374-2.596 1.604-.01 3.687.756 4.513 1.661.628.687.928.818 1.71.751.522-.045 1.28.056 1.686.223.404.168 1.152.267 1.662.22l.925-.083-.6-2.012c-.79-2.644-1.384-3.792-1.795-3.46-.764.615-9.206 1.368-15.362 1.37-3.022.001-7.639-.57-9.345-1.156-.581-.2-1.246-.697-1.572-1.177l-.566-.83zm18.761 5.854a1.52 1.52 0 0 0-.331.04c-1.933.484-3.662 2.627-3.668 4.546-.006 1.918.828 2.779 3.302 3.407.987.251 3.833-.036 4.466-.45.746-.49 1.046-1.768.796-3.394-.192-1.249-.908-2.86-1.482-3.337-.502-.416-2.185-.835-3.083-.812zm-12.145.601c1.103.016 2.216.322 3.08.949 1.26.912 1.727 2.149 1.563 4.133-.162 1.954-.398 2.135-2.08 1.592-1.776-.574-2.737-.555-4.609.089-.846.29-1.624.529-1.729.529-.308 0-.693-.593-1.062-1.637-.404-1.141-.108-2.47.877-3.943.76-1.135 2.349-1.734 3.96-1.712zm18.502 1.772c-.277 0-.307.154-.307.595 0 .65.076.692 1.282.692.98 0 1.46.153 2.04.652.842.723 1.165.532 1.172-.694.004-.655-.09-.712-1.385-.839-.764-.075-1.776-.219-2.25-.32a3.081 3.081 0 0 0-.552-.086zm1.042 2.61c-.767 0-1.35.423-1.35.979 0 .21.327.344.832.344.612 0 1.049.24 1.654.911.988 1.095 1.219 1.15 1.219.288 0-.946-1.471-2.522-2.355-2.522zm-1.47 2.528c-.295.012-.538.131-.673.383-.187.349-.15.515.136.625.57.219 1.45 1.778 1.451 2.571 0 .332.062.672.144.814h.447c.12-.156.295-.42.579-.85.402-.609.645-1.267.56-1.521-.382-1.143-1.754-2.06-2.643-2.022z" style="fill:#fff;stroke-width:.264585"/><path d="M8.96 43.889h2.103v.852H8.959v.86q0 .527.008.933.008.405.05.614H7.822q.041-.228.049-.656.007-.432.007-.993v-2.217q0-.56-.007-1-.008-.44-.05-.667h3.563v.872H8.959Zm6.67 1.553h-2.911v-.682h1.944q0-.398-.175-.576-.17-.182-.507-.182-.41 0-.61.285-.198.28-.198.947 0 .603.243.88.243.276.712.276.372 0 .728-.087.36-.087.713-.296l.08.857q-.41.208-.793.291-.379.088-.822.088-.5 0-.933-.224-.432-.224-.697-.663-.261-.44-.261-1.084 0-.63.227-1.092.231-.462.656-.716.424-.257 1.008-.257.477 0 .784.166.31.163.485.44.178.277.25.621.072.341.072.698v.155q.004.102.004.155zm4.604-4.358v4.055q0 .716.08 1.205.082.485.204.804h-1.042q-.042-.091-.103-.277-.057-.19-.106-.386-.254.363-.583.56-.33.198-.724.198-.466 0-.823-.228-.352-.227-.553-.64-.197-.417-.197-.97 0-.671.25-1.164.25-.493.67-.762.425-.272.937-.272.224 0 .474.098.25.099.454.224v-1.061q0-.455-.022-.8-.02-.345-.072-.584zm-1.062 4.548V44.35q-.261-.129-.462-.182-.2-.053-.466-.053-.197 0-.383.14-.182.14-.3.402-.113.261-.113.633 0 1.099.72 1.099.201 0 .398-.11t.356-.284q.16-.175.25-.364zm1.99-2.35h1.042q.042.084.084.247.041.163.068.398.261-.319.61-.52.352-.2.765-.2.425 0 .74.246.318.246.492.678.178.432.178.99 0 .647-.227 1.125-.228.474-.614.735-.383.262-.85.262-.298 0-.537-.095-.235-.091-.5-.247v.815q0 .455.022.75.023.296.072.539h-1.156V45.31q0-.709-.03-1.205-.03-.5-.159-.823zm1.25 1.649v1.08q.292.212.44.284.152.072.349.072.348 0 .614-.303.265-.303.265-.83 0-.515-.193-.819-.194-.307-.538-.307-.254 0-.516.213-.257.208-.42.61zm3.411.295q0-.651.258-1.102.261-.451.693-.682.432-.235.944-.235.538 0 .947.235.41.23.64.682.232.45.232 1.102 0 .652-.261 1.103-.258.447-.69.682-.432.232-.944.232-.534 0-.943-.232-.41-.235-.645-.682-.23-.45-.23-1.103zm1.061 0q0 .542.201.853.205.31.595.31.368 0 .58-.31.216-.31.216-.853 0-.545-.205-.856-.2-.31-.59-.31-.368 0-.584.31-.213.31-.213.856zm6.424-1.716-.148.89q-.212-.11-.538-.235-.322-.125-.716-.125-.334 0-.463.114-.125.114-.125.227 0 .091.05.156.053.064.212.121.163.053.496.121.394.076.72.216.33.137.523.368.197.231.197.591 0 .364-.22.656-.22.291-.595.462-.371.17-.833.17-.508 0-.936-.128-.429-.133-.675-.307l.209-.929q.28.231.682.372.405.14.739.14.269 0 .435-.102.171-.107.171-.24 0-.166-.174-.291-.175-.129-.717-.246-.538-.118-.822-.28-.28-.164-.383-.368-.102-.205-.102-.444 0-.14.076-.34.076-.205.257-.403.186-.2.505-.333.322-.136.81-.136.463 0 .804.098.341.095.56.205zm3.6 2.573v.849q-.27.17-.52.238-.25.072-.454.072-.356 0-.652-.094-.295-.099-.474-.341-.174-.247-.174-.682v-3.98h1.061v3.252q0 .428.05.637.049.208.155.272.106.061.277.061.272 0 .73-.284zm-.057-1.986h-2.937v-.758h2.937zm4.131 1.345h-2.91v-.682h1.943q0-.398-.174-.576-.17-.182-.508-.182-.409 0-.61.285-.197.28-.197.947 0 .603.243.88.242.276.712.276.371 0 .728-.087.36-.087.712-.296l.08.857q-.41.208-.792.291-.38.088-.823.088-.5 0-.932-.224-.432-.224-.697-.663-.262-.44-.262-1.084 0-.63.228-1.092.23-.462.655-.716.425-.257 1.008-.257.478 0 .785.166.31.163.485.44.178.277.25.621.072.341.072.698v.155q.004.102.004.155zm1.989 1.706h-1.06v-2.33q0-.558-.065-.948-.06-.39-.125-.588h1.042q.03.08.057.22.03.14.057.284.026.144.037.235.277-.394.607-.602.33-.212.587-.212.356 0 .572.197.216.193.315.515.098.322.098.709l-.845.132q-.019-.257-.125-.413-.106-.159-.348-.159-.125 0-.288.14-.163.14-.307.36-.14.216-.209.451z" aria-label="Fedposter" style="font-weight:700;font-size:7.76116px;font-family:Andika;-inkscape-font-specification:&quot;Andika Bold&quot;;text-align:center;text-anchor:middle;opacity:.99;fill:#00cfff;stroke-width:.264585"/></svg>