<svg xmlns="http://www.w3.org/2000/svg" width="200" height="200" viewBox="0 0 52.917 52.917"><rect width="52.917" height="52.917" y="-.001" rx="14.552" ry="14.552" style="display:inline;fill:#000;fill-opacity:1;fill-rule:nonzero;stroke:none;stroke-width:.5;stroke-linecap:butt;stroke-linejoin:round;stroke-miterlimit:4;stroke-dasharray:none;stroke-dashoffset:0;stroke-opacity:.909449;paint-order:normal"/><path d="M15.742 2.645h21.432c7.24-.016 13.112 5.857 13.096 13.097v9.128c0 6.553-.73 12.304-11.906 12.304H14.55c-12.082 0-11.906-6.917-11.906-12.304v-9.128C2.629 8.502 8.502 2.629 15.742 2.645Z" style="display:inline;fill:#fff;stroke-width:.450003;stroke-linejoin:round;stroke-opacity:.909449"/><path d="M52.916 37.173v1.191a14.52 14.52 0 0 1-14.552 14.552H14.552A14.52 14.52 0 0 1 0 38.364v-1.19z" style="display:inline;fill:#000;stroke-width:.5;stroke-linejoin:round;stroke-opacity:.909449"/><path d="M50.27 20.306v4.564c0 6.553-.73 12.304-11.906 12.304H14.55c-12.082 0-11.906-6.917-11.906-12.304v-4.564z" style="display:inline;fill:#009245;stroke-width:.450003;stroke-linejoin:round;stroke-opacity:.909449;fill-opacity:1"/><path d="M24.324 39.385c-4.2-.421-5.502-.697-6.961-1.475-2.685-1.43-3.693-2.956-5.116-7.74-.628-2.112-.609-6.843.036-8.731 1.01-2.963 2.065-4.756 3.816-6.487 3.682-3.644 6.127-4.758 10.44-4.758 7.274 0 11.954 3.986 13.668 11.642.769 3.434.664 8.218-.222 10.169-.774 1.703-2.19 3.81-3.135 4.668-2.307 2.09-7.504 3.216-12.526 2.712zm6.747-9.848c.582-.14 1.713-.442 2.514-.668.8-.227 1.714-.414 2.031-.416.918-.005 1.417-.686 1.222-1.667-.34-1.71-1.377-3.62-2.259-4.158-1.5-.915-4.16-.56-5.285.704-.25.28-.643 1.245-.873 2.143-.338 1.321-.36 1.85-.115 2.767.37 1.387.722 1.848 1.281 1.68.234-.071.902-.244 1.484-.385zm-7.383-.872c.588-1.136.334-3.677-.49-4.915-1.524-2.29-5.529-2.604-6.861-.539-.478.741-1.009 2.797-1.009 3.907 0 1.004.408 1.215 3.602 1.856 3.663.736 4.237.699 4.758-.309zm16.952 3.906c-.153-.4.175-.753.958-1.032.436-.156.44-.229.066-.954-.535-1.034-.517-2.944.04-4.11.806-1.691 1.875-.99 2.203 1.446.161 1.19.162 1.19.507.488.306-.624.266-.87-.364-2.202-.56-1.184-.644-1.578-.396-1.877.432-.52.773-.475 1.489.198l.612.575v-.807c0-.683-.12-.83-.785-.964-.999-.2-1.901-1.082-1.685-1.646.161-.42.445-.416 1.875.027.483.15.595.083.595-.355 0-.378-.226-.588-.758-.705-.417-.092-.982-.375-1.256-.63-.275-.255-.717-.546-.984-.648-.267-.102-.434-.334-.37-.516.076-.22.658-.322 1.741-.305 1.2.019 1.627-.068 1.627-.33 0-.214-.295-.357-.734-.357-.966 0-1.759-.58-2.178-1.592-.47-1.136-.074-1.512 1.186-1.125.513.157.933.186.933.063 0-.58-.561-1.57-1.319-2.328-.639-.64-.793-.975-.656-1.432.497-1.657 1.721-1.582 2.338.142.219.612.547 1.738.729 2.502.352 1.477.501 1.622 1.024.992.534-.643 1.563-.496 1.852.264a1.791 1.791 0 0 1-1.06 2.331c-.436.164-.792.451-.792.638 0 .443.148.427.952-.1.618-.405.7-.405 1.101-.003.603.603.171 1.736-.924 2.425-.464.291-.848.728-.854.97-.009.38.1.4.78.142.59-.222.867-.221 1.093.005.492.492.045 1.146-1.09 1.591-.8.315-1.058.562-1.058 1.016 0 .33-.072.789-.161 1.02-.119.31-.048.379.265.259.708-.272 1.748.118 1.748.656 0 .488-1.487 1.647-2.543 1.982-.303.097-.686.47-.85.832-.356.78-.148.823 1.668.337.936-.25 1.263-.25 1.516.004.736.736-2.208 2.43-4.228 2.434-.543.001-1.344.238-1.78.527-.932.617-1.868.686-2.073.152zM8.813 31.032c-.244-.472-.474-1.414-.51-2.093-.045-.835-.374-1.785-1.012-2.926-1.333-2.383-1.623-3.345-2.15-7.12-.658-4.7-.228-8.039.975-7.577.365.14 1.54 4.407 2.35 8.535.48 2.446 1.804 7.022 2.378 8.22.578 1.205.68 3.019.198 3.501-.175.175-.648.318-1.052.318-.56 0-.839-.203-1.177-.858z" style="fill:#000;stroke-width:.264585"/><path d="M8.017 44.765h2.486v1.007H8.017v1.017q0 .622.01 1.102.008.479.057.725h-1.41q.049-.268.058-.775.009-.51.009-1.173v-2.62q0-.663-.01-1.182-.008-.52-.057-.789h4.21v1.03H8.016Zm5.263 3.851h-1.254v-2.754q0-.658-.077-1.12-.071-.461-.147-.694h1.231q.036.094.067.26.036.165.068.336.03.17.044.277.327-.465.717-.712.39-.25.694-.25.421 0 .676.232.256.229.372.61.117.38.117.837l-1 .157q-.022-.305-.147-.488-.125-.189-.412-.189-.148 0-.34.166-.193.166-.363.426-.166.255-.246.533zm7.076-2.016h-3.44v-.805h2.298q0-.47-.206-.681-.202-.215-.6-.215-.484 0-.721.336-.233.331-.233 1.12 0 .712.286 1.039.287.327.842.327.44 0 .86-.103.426-.104.842-.35l.094 1.012q-.483.247-.936.345-.448.103-.972.103-.59 0-1.101-.264t-.824-.784q-.31-.52-.31-1.28 0-.744.27-1.29.272-.547.774-.847.502-.305 1.191-.305.565 0 .927.198.368.192.574.519.21.327.295.735.085.403.085.824v.183q.005.121.005.184zm4.971 0h-3.44v-.805h2.298q0-.47-.206-.681-.201-.215-.6-.215-.484 0-.721.336-.233.331-.233 1.12 0 .712.287 1.039.286.327.842.327.439 0 .86-.103.425-.104.841-.35l.095 1.012q-.484.247-.937.345-.447.103-.971.103-.592 0-1.102-.264-.51-.264-.824-.784-.31-.52-.31-1.28 0-.744.27-1.29.273-.547.774-.847.502-.305 1.192-.305.564 0 .927.198.367.192.573.519.21.327.296.735.085.403.085.824v.183q.004.121.004.184zm1.478-3.224q0-.99.47-1.5.47-.515 1.3-.515.25 0 .563.094.314.09.511.22l-.255 1.02q-.144-.134-.35-.21-.201-.08-.367-.08-.322 0-.47.237-.148.237-.148.783v2.979q0 .65.031 1.254.032.604.103.958h-1.388v-5.24zm-.896 1.635v-.896h3.292v.896zm3.852 1.335q0-.77.305-1.304.309-.533.82-.806.51-.278 1.114-.278.636 0 1.12.278.484.273.757.806t.273 1.304q0 .77-.309 1.303-.304.528-.815.806-.51.273-1.115.273-.632 0-1.115-.273-.484-.278-.762-.806-.273-.533-.273-1.303zm1.254 0q0 .64.237 1.007.242.368.704.368.434 0 .685-.368.255-.367.255-1.007 0-.645-.242-1.013-.237-.367-.698-.367-.435 0-.69.367-.251.368-.251 1.013zm5.442 2.27h-1.254v-2.754q0-.658-.077-1.12-.071-.461-.147-.694h1.231q.036.094.067.26.036.165.068.336.031.17.044.277.327-.465.717-.712.39-.25.694-.25.421 0 .676.232.256.229.372.61.117.38.117.837l-1 .157q-.021-.305-.147-.488-.125-.189-.412-.189-.148 0-.34.166-.193.166-.363.426-.166.255-.246.533zm7.165-2.956v2.956h-1.254v-2.553q0-.425-.049-.64-.045-.215-.157-.291-.112-.076-.309-.076-.25 0-.488.197-.233.192-.363.497v2.866h-1.254v-2.754q0-.658-.076-1.12-.076-.461-.148-.694h1.165q.076.13.125.314.054.183.085.335.412-.447.766-.59.359-.149.748-.149.44 0 .712.229.278.228.39.524.42-.452.793-.6.371-.153.725-.153.681 0 .945.44.264.434.264 1.262v2.956h-1.254v-2.463q0-.452-.044-.685-.045-.238-.157-.323-.112-.09-.314-.09-.246 0-.479.166-.228.162-.372.44z" aria-label="Freeform" style="font-weight:700;font-size:9.17228px;font-family:Andika;-inkscape-font-specification:&quot;Andika Bold&quot;;text-align:center;text-anchor:middle;opacity:.99;fill:#009245;stroke-width:.264585"/></svg>