<svg xmlns="http://www.w3.org/2000/svg" width="200" height="200" viewBox="0 0 52.917 52.917"><rect width="52.917" height="52.917" y="-.001" rx="14.552" ry="14.552" style="display:inline;fill:#000;fill-opacity:1;fill-rule:nonzero;stroke:none;stroke-width:.5;stroke-linecap:butt;stroke-linejoin:round;stroke-miterlimit:4;stroke-dasharray:none;stroke-dashoffset:0;stroke-opacity:.909449;paint-order:normal"/><path d="M15.742 2.645h21.432c7.24-.016 13.112 5.857 13.096 13.097v9.128c0 6.553-.73 12.304-11.906 12.304H14.55c-12.082 0-11.906-6.917-11.906-12.304v-9.128C2.629 8.502 8.502 2.629 15.742 2.645Z" style="display:inline;fill:#ef7828;stroke-width:.450003;stroke-linejoin:round;stroke-opacity:.909449;fill-opacity:1"/><path d="M52.916 37.173v1.191a14.52 14.52 0 0 1-14.552 14.552H14.552A14.52 14.52 0 0 1 0 38.364v-1.19z" style="display:inline;fill:#000;stroke-width:.5;stroke-linejoin:round;stroke-opacity:.909449"/><path d="M38.83 39.25c-1.467-.866-1.627-1.004-1.783-1.54-.118-.407.12-.73 1.034-1.404 1.227-.906 2.755-2.782 2.755-3.384 0-.189.305-1.309.678-2.49.538-1.704.68-2.703.689-4.862.01-2.41-.066-2.87-.673-4.066-.375-.742-.812-1.923-.97-2.625-.343-1.535-1.144-2.467-2.12-2.467-.882 0-1.142.304-1.69 1.984-.628 1.928-.697 1.99-2.6 2.316-1.694.29-1.783.276-3.414-.528-.92-.455-1.952-.905-2.293-1.002-.34-.096-1.299-.873-2.13-1.725-1.548-1.587-3.826-2.89-5.06-2.895-.86-.003-3.184 1.566-4.203 2.839-1.546 1.931-2.725 4.702-3.08 7.244-.192 1.372.466 5.761 1.086 7.246.216.515.598 1.147.849 1.403.688.703 3.5 4.235 3.5 4.398 0 .078-.592.442-1.315.808-2.885 1.462-6.836.402-8.174-2.193-.75-1.453-.477-4.775.505-6.154.533-.748.56-1.048.476-5.086-.084-3.97-.045-4.406.518-5.844.547-1.396 1.115-2.282 1.462-2.282.07 0 .25.357.402.793.153.437.395.794.54.794.522 0 .595-.566.157-1.234-.371-.567-.429-1.197-.343-3.759.107-3.212.577-4.796 1.422-4.796 1.123 0 3.317 2.136 3.982 3.877.309.808.591 1.15.95 1.15.588 0 .492-.607-.324-2.03-.457-.797-.457-.858-.018-1.256.255-.23.552-.419.662-.419.11 0 .993-.398 1.963-.884 2.743-1.375 7.59-2.05 10.1-1.404.8.205 1.915.455 2.48.555 1.21.215 2.017.67 2.017 1.14 0 .185-.357.97-.794 1.743-.788 1.397-1.007 2.29-.56 2.29.128 0 .55-.625.936-1.389.75-1.48 3.64-4.696 4.221-4.696 1.031 0 1.749 2.34 1.752 5.718.002 1.574-.308 3.73-.67 4.667-.126.325-.05.463.254.463.49 0 .68-.369.766-1.481.048-.616.184-.768.69-.768 1.508 0 2.448 4.915 1.535 8.03-.383 1.309-.374 1.417.275 3.014 1.196 2.946 1.128 7.735-.145 10.214-.915 1.78-4.643 2.95-6.296 1.976zM18.016 14.561c.182-.002.331-.109.331-.238 0-.268-2.313-3.469-2.506-3.469-.07 0-.308.352-.53.78-.408.791-.533 3.006-.248 4.429l.155.777 1.234-1.138c.679-.626 1.383-1.14 1.564-1.14zm22.66-1.223c.04-3.054-.23-3.233-2.082-1.38-1.455 1.455-1.784 2.071-1.105 2.071.778 0 1.982.846 2.301 1.616.297.716.369.758.597.35.143-.256.273-1.451.289-2.657zM24.167 38.673c-3.084-.517-3.804-.85-4.272-1.981-.175-.423-1.104-1.617-2.064-2.654-1.92-2.073-2.429-3.16-2.922-6.25-.693-4.343 1.204-8.96 4.614-11.223 2.222-1.475 3.265-1.27 5.795 1.138 3.476 3.308 7.123 4.659 9.988 3.699 1.294-.433 2.09-1.247 2.09-2.135 0-.89.696-2.062 1.226-2.062.377 0 .723.685 1.538 3.043.25.728.64 1.8.863 2.381.633 1.65.493 4.869-.342 7.824-.89 3.147-1.395 3.977-3.249 5.335-.82.6-1.55 1.162-1.623 1.249-1.367 1.62-7.006 2.413-11.642 1.636zm13.641-12.206c2.055-.928 2.285-2.118.41-2.118-.577 0-1.206-.15-1.398-.332-2.04-1.94-2.772-2.132-4.62-1.21-.823.413-1.302.888-1.682 1.672-.644 1.33-.663 1.816-.095 2.385.375.374.846.41 3.374.261 1.96-.116 3.295-.335 4.011-.658zm-11.434.145c.081-.211.012-1.113-.154-2.005-.282-1.513-.373-1.658-1.357-2.16-.781-.398-1.344-.499-2.167-.386-.974.134-3.07 1.053-3.925 1.722-.161.126-.607.303-.991.395-.747.178-1.096.726-.858 1.347.08.21.821.618 1.645.905 1.935.675 7.568.806 7.807.182zm-17.724.626c-.459-.134-1.218-.682-1.688-1.218-1.144-.958-.78-1.85-.661-3.24.106-1.247.182-2.744.168-3.326-.034-1.379-.78-2.381-1.773-2.381-.576 0-.813-.165-1-.697-.403-1.138-.071-1.552 1.241-1.552 1.367 0 2.639.755 3.575 2.123.578.844.617 1.103.48 3.138-.17 2.512.178 4.57.947 5.611.577.78.545 1.663-.063 1.738-.216.026-.768-.062-1.226-.196z" style="fill:#000;stroke-width:.264585"/><path d="M9.28 41.49h3.426v.918h-1.075v4.703h1.075v.918H9.28v-.918h1.075v-4.703H9.28Zm9.092-.627v4.792q0 .847.094 1.424.098.574.242.95h-1.232q-.05-.108-.12-.327-.068-.224-.126-.457-.3.43-.69.663-.39.233-.855.233-.551 0-.972-.269-.417-.269-.654-.757-.233-.492-.233-1.146 0-.793.296-1.375.295-.583.792-.9.502-.323 1.106-.323.265 0 .56.116.296.117.538.265v-1.254q0-.538-.027-.945-.022-.408-.085-.69zm-1.254 5.374v-1.513q-.31-.153-.547-.215-.237-.063-.55-.063-.233 0-.453.166-.215.165-.354.474-.134.31-.134.748 0 1.3.85 1.3.238 0 .471-.13.233-.13.421-.337.188-.206.296-.43zm6.449-.224h-3.44v-.806h2.298q0-.47-.206-.68-.202-.215-.6-.215-.484 0-.721.335-.233.332-.233 1.12 0 .712.286 1.04.287.326.842.326.44 0 .86-.103.426-.103.842-.35l.094 1.013q-.483.246-.936.345-.447.103-.971.103-.592 0-1.102-.264-.51-.265-.824-.784-.31-.52-.31-1.281 0-.744.27-1.29.273-.546.774-.846.502-.305 1.192-.305.564 0 .927.197.367.193.573.52.21.327.295.734.086.403.086.824v.184q.004.12.004.183zm5.693 2.016h-1.192q-.063-.108-.12-.354-.06-.25-.095-.52-.031-.273-.031-.438v-.256q-.166.385-.462.775-.295.385-.69.645-.393.26-.864.26-.564 0-.954-.497-.39-.502-.39-1.451 0-.533.158-1.035.156-.506.483-.91.327-.402.833-.64.506-.237 1.2-.237.489 0 .968.058.484.054.864.144v2.082q0 .847.08 1.424.082.574.211.95zm-1.573-3.27v-.295q-.094-.023-.273-.054-.179-.036-.466-.036-.47 0-.739.26-.268.26-.38.676-.112.417-.112.883 0 .394.143.64.148.242.35.242.188 0 .39-.188.205-.188.398-.48.192-.29.349-.613.157-.322.246-.6.094-.282.094-.435zm4.013-3.896v5.038q0 .287.01.695.013.407.03.797.023.39.05.636h-1.344v-5.061q0-1.312-.09-2.105zm1.545 2.597h1.322v2.441q0 .287.009.7.013.407.031.796.022.39.05.632h-1.344v-2.374q0-.654-.014-1.245-.009-.596-.054-.95zm-.09-1.634q0-.345.22-.564.224-.22.565-.22.344 0 .564.22.22.22.22.564 0 .35-.22.569-.22.215-.564.215-.34 0-.565-.215-.22-.22-.22-.57zm6.271 1.904-.175 1.052q-.25-.13-.636-.278-.38-.148-.846-.148-.394 0-.547.135-.147.134-.147.268 0 .108.058.184.063.076.25.143.193.063.587.144.466.09.851.255.39.161.618.434.233.274.233.7 0 .429-.26.774-.26.345-.703.546-.439.202-.985.202-.6 0-1.106-.152-.506-.157-.797-.363l.246-1.098q.331.274.806.44.48.165.873.165.318 0 .515-.12.202-.126.202-.283 0-.197-.206-.345-.206-.152-.846-.29-.636-.14-.972-.332-.332-.193-.453-.435-.12-.242-.12-.524 0-.165.089-.403.09-.242.305-.475.219-.237.595-.394.38-.161.959-.161.546 0 .95.116.402.112.662.242zm4.254 3.04v1.004q-.317.201-.613.282-.296.085-.537.085-.421 0-.77-.112-.35-.117-.56-.403-.207-.291-.207-.806v-4.703h1.254v3.843q0 .506.059.752.058.246.183.323.126.071.327.071.323 0 .865-.336zm-.067-2.346h-3.47v-.896h3.47z" aria-label="Idealist" style="font-weight:700;font-size:9.17228px;font-family:Andika;-inkscape-font-specification:&quot;Andika Bold&quot;;text-align:center;text-anchor:middle;opacity:.99;fill:#f7b1bb;stroke-width:.264585"/></svg>