<svg xmlns="http://www.w3.org/2000/svg" width="200" height="200" viewBox="0 0 52.917 52.917"><rect width="52.917" height="52.917" y="-.001" rx="14.552" ry="14.552" style="display:inline;fill:#000;fill-opacity:1;fill-rule:nonzero;stroke:none;stroke-width:.5;stroke-linecap:butt;stroke-linejoin:round;stroke-miterlimit:4;stroke-dasharray:none;stroke-dashoffset:0;stroke-opacity:.909449;paint-order:normal"/><path d="M15.742 2.645h21.432c7.24-.016 13.112 5.857 13.096 13.097v9.128c0 6.553-.73 12.304-11.906 12.304H14.55c-12.082 0-11.906-6.917-11.906-12.304v-9.128C2.629 8.502 8.502 2.629 15.742 2.645Z" style="display:inline;fill:#fff;stroke-width:.450003;stroke-linejoin:round;stroke-opacity:.909449"/><path d="M52.916 37.173v1.191a14.52 14.52 0 0 1-14.552 14.552H14.552A14.52 14.52 0 0 1 0 38.364v-1.19z" style="display:inline;fill:#000;stroke-width:.5;stroke-linejoin:round;stroke-opacity:.909449"/><path d="M2.645 24.87v-9.128C2.629 8.502 8.502 2.629 15.742 2.645h2.25l5.522 9.703m26.756 3.394v9.128c0 6.553-.73 12.304-11.906 12.304h-1.852l-5.875-9.703" style="display:inline;fill:red;stroke-width:.450003;stroke-linejoin:round;stroke-opacity:.909449"/><path d="M2.645 21.166v-5.424C2.629 8.502 8.502 2.629 15.742 2.645h2.25l3.89 6.799M50.27 19.446v5.424c0 6.553-.73 12.304-11.906 12.304h-1.852l-4.2-6.924" style="display:inline;fill:#ff0;stroke-width:.450003;stroke-linejoin:round;stroke-opacity:.909449"/><path d="M24.012 23.019h14.173v11.013H24.012z" style="fill:red;stroke-width:.700005;stroke-linecap:round;stroke-linejoin:round;paint-order:stroke fill markers"/><path d="M22.14 39.898c-2.844-.45-6.186-1.52-8.355-2.676-3-1.599-4.58-5.025-4.807-10.414-.12-2.887-.066-3.389.603-5.513.9-2.858 2.368-5.832 3.59-7.275l.914-1.08 2.167.877c2.486 1.005 10.434 3.074 11.811 3.074.508 0 2.33.298 4.048.662 1.717.365 3.958.746 4.979.849 2.12.212 1.808-.275 2.983 4.682.477 2.015.552 2.933.405 4.962-.37 5.119-.938 6.962-2.681 8.705-1.408 1.409-4.37 2.659-7.453 3.146-3.175.502-5.031.503-8.204.001zm11.694-7.873c1.61-.447 2.536-1.519 2.767-3.202.127-.92.08-1.623-.135-2.024-.32-.597-.414-.61-3.262-.42-1.612.107-3.738.348-4.724.535-2.1.398-2.297.783-1.42 2.765.945 2.135 3.876 3.15 6.774 2.346zM19.53 30.513c1.468-.697 2.669-3.614 2.1-5.103-.23-.604-.784-.896-3.534-1.862-4.702-1.652-4.882-1.67-5.34-.568-.579 1.4-.5 4.32.151 5.609 1.204 2.378 3.971 3.182 6.623 1.924zm21.354 5.191c-1.223-.61-1.306-1.344-.138-1.224 4.55.47 5.375.325 5.375-.94 0-.385-.385-1.259-.855-1.942-1.201-1.746-1.467-2.868-.964-4.071.42-1.004 1.321-1.458 2.357-1.187.304.08.592-.025.676-.245.081-.21.344-.383.585-.383.53 0 1.581 2.245 1.458 3.112-.076.536-.253.61-1.465.61h-1.378l.07-.896c.057-.736-.03-.896-.483-.896-.994 0-.853 1.558.285 3.142 1.526 2.126 1.35 4.266-.413 5.003-1.324.553-3.922.51-5.11-.083zM36.336 17.71c-.91-.125-2.8-.483-4.2-.798-1.401-.314-2.976-.571-3.5-.571-1.551 0-10.39-2.385-12.643-3.412-1.62-.738-2.245-1.195-2.816-2.058-.88-1.33-.754-1.99.534-2.786.634-.392 1.382-.565 2.445-.565 1.737 0 4.33.527 4.33.881 0 .529-1.464.785-2.932.513-1.476-.272-1.896-.228-3.053.326-.607.29-.607.295-.08 1.034.324.456 1.304 1.065 2.539 1.577 2.32.963 10.079 2.928 13.312 3.372a57.85 57.85 0 0 1 3.997.706c.985.222 2.818.486 4.073.587 2.027.163 2.262.134 2.111-.26-.093-.244-.686-.748-1.316-1.12-1.34-.792-3.122-2.563-2.851-2.833.243-.243 2.72 1.028 4.386 2.251 1.357.996 1.887 2.082 1.396 2.863-.324.516-3.069.656-5.732.293zm-1.654-2.35c-.91-.21-2.646-.52-3.859-.687-2.847-.393-10.91-2.37-12.642-3.1l-1.34-.564 1.202-.625a32.43 32.43 0 0 1 2.787-1.226c1.494-.568 1.752-.584 4.548-.29 1.63.173 3.56.494 4.287.714 1.57.475 4.19 1.85 5.155 2.705.808.715 2.757 3.065 2.757 3.324 0 .268-1.047.177-2.895-.25z" style="fill:#000;stroke-width:.275655"/><g aria-label="Irony" style="font-weight:700;font-size:13.0529px;font-family:Andika;-inkscape-font-specification:&quot;Andika Bold&quot;;text-align:center;text-anchor:middle;opacity:.99;fill:red;stroke-width:.264585"><path d="M9.234 38.894h4.875v1.307h-1.53v6.692h1.53v1.306H9.234v-1.306h1.53V40.2h-1.53zm8.54 9.306H15.99v-3.92q0-.937-.109-1.594-.102-.656-.21-.988h1.753q.05.134.095.37.051.236.096.478.044.242.064.395.465-.663 1.02-1.013.554-.357.987-.357.6 0 .963.331.363.325.529.867.165.542.165 1.192l-1.421.223q-.032-.433-.21-.695-.179-.267-.587-.267-.21 0-.484.236-.274.235-.516.605-.236.363-.35.758z" style="fill:#fff;fill-opacity:1" transform="translate(5.766 9.817) scale(.78205)"/><path d="M22.956 44.985q0-.857.34-1.451.343-.593.911-.897.569-.309 1.241-.309.708 0 1.247.309.538.304.842.897.304.594.304 1.45 0 .858-.344 1.451-.34.589-.907.897-.568.305-1.241.305-.703 0-1.241-.305-.538-.308-.848-.897-.303-.593-.303-1.45zm1.396 0q0 .712.264 1.121.27.41.782.41.484 0 .764-.41.283-.409.283-1.121 0-.718-.269-1.126-.264-.41-.777-.41-.484 0-.768.41-.28.408-.28 1.126z"/><path d="M35.939 48.2h-1.785v-3.506q0-.88-.242-1.217-.236-.345-.746-.345-.363 0-.701.21-.338.205-.593.517-.248.312-.363.644v3.696h-1.785v-3.92q0-.936-.108-1.593-.102-.656-.21-.988h1.752q.051.128.096.351.051.223.096.452.044.23.063.377.606-.695 1.192-1.001.587-.306 1.262-.306.969 0 1.517.67.555.662.555 1.975v3.983zm4.627-1.339-.842 1.861-1.842-4.761q-.172-.44-.414-.975-.236-.542-.605-1.288h1.995zm2.192-2.9-1.53 4.238q-.446 1.23-.904 1.874-.453.65-.95.886-.497.236-1.077.236-.893 0-1.625-.542l.446-1.39q.204.166.535.32.331.159.644.159.197 0 .395-.109.204-.108.42-.42.217-.306.46-.905.095-.23.242-.574.153-.35.306-.714.159-.363.255-.65.267-.924.516-1.81.248-.886.452-1.625.21-.746.344-1.237h1.995q-.331.74-.548 1.282-.216.535-.376.981z" style="fill:#ff0;fill-opacity:1" transform="translate(5.766 9.817) scale(.78205)"/></g></svg>