<svg xmlns="http://www.w3.org/2000/svg" xml:space="preserve" width="200" height="200" viewBox="0 0 52.917 52.917"><defs><clipPath id="a" clipPathUnits="userSpaceOnUse"><path d="M-131.444 25.897h25.35c8.563-.021 15.51 7.88 15.49 17.618v12.28c0 8.815-.864 16.551-14.083 16.551h-28.166c-14.29 0-14.083-9.304-14.083-16.55v-12.28c-.02-9.74 6.928-17.641 15.492-17.62z" style="display:inline;fill:#fff;stroke-width:.567648;stroke-linejoin:round;stroke-opacity:.909449"/></clipPath></defs><rect width="52.917" height="52.917" y="-.001" rx="14.552" ry="14.552" style="display:inline;fill:#000;fill-opacity:1;fill-rule:nonzero;stroke:none;stroke-width:.5;stroke-linecap:butt;stroke-linejoin:round;stroke-miterlimit:4;stroke-dasharray:none;stroke-dashoffset:0;stroke-opacity:.909449;paint-order:normal"/><path d="M52.916 37.173v1.191a14.52 14.52 0 0 1-14.552 14.552H14.552A14.52 14.52 0 0 1 0 38.364v-1.19z" style="display:inline;fill:#000;stroke-width:.5;stroke-linejoin:round;stroke-opacity:.909449"/><g clip-path="url(#a)" transform="matrix(.84542 0 0 .74336 126.868 -16.606)"><path d="M-157.435 25.276h38.817v16.069h-38.817z" style="fill:#008b28;fill-opacity:1;stroke-width:.700005;stroke-linecap:round;stroke-linejoin:round;paint-order:stroke fill markers"/><path d="M-118.618 25.276h38.817v16.069h-38.817z" style="fill:#141414;fill-opacity:1;stroke-width:.700005;stroke-linecap:round;stroke-linejoin:round;paint-order:stroke fill markers"/><path d="M-118.618 41.345h38.817v16.069h-38.817z" style="fill:red;fill-opacity:1;stroke-width:.700005;stroke-linecap:round;stroke-linejoin:round;paint-order:stroke fill markers"/><path d="M-157.435 41.345h38.817v16.069h-38.817z" style="fill:#fcde02;fill-opacity:1;stroke-width:.700005;stroke-linecap:round;stroke-linejoin:round;paint-order:stroke fill markers"/><path d="M-157.435 57.413h38.817v16.069h-38.817z" style="fill:#db0a13;fill-opacity:1;stroke-width:.700005;stroke-linecap:round;stroke-linejoin:round;paint-order:stroke fill markers"/><path d="M-118.618 57.413h38.817v16.069h-38.817z" style="fill:#ffcd00;fill-opacity:1;stroke-width:.700005;stroke-linecap:round;stroke-linejoin:round;paint-order:stroke fill markers"/></g><path d="M14.444 19.499h11.374v10.833H14.444z" style="fill:#fcde02;fill-opacity:1;stroke-width:.700005;stroke-linecap:round;stroke-linejoin:round;paint-order:stroke fill markers"/><path d="M28.797 20.311H39.81v9.749H28.797z" style="fill:red;fill-opacity:1;stroke-width:.700005;stroke-linecap:round;stroke-linejoin:round;paint-order:stroke fill markers"/><path d="M21.216 38.757c-3.018-.502-8.15-2.295-8.154-2.85 0-.104-.49-.834-1.087-1.622-.907-1.196-1.162-1.846-1.546-3.936-.833-4.542-.541-8.783.812-11.78.981-2.173 4.857-6.386 7.393-8.035 2.85-1.854 4.207-2.215 8.635-2.298 3.606-.068 3.666-.058 5.507.845 6.084 2.986 9.896 8.722 10.292 15.486.114 1.934-.727 7.959-1.32 9.463l-.506 1.28c-.419 1.055-4.123 2.766-7.217 3.334-1.558.286-11.252.371-12.81.113zm17.947-9.89c.689-2.3.244-5.179-1.02-6.603-.725-.815-2.587-1.574-3.883-1.58-1.276-.007-3.003.979-4.042 2.307-1.18 1.509-1.442 5.56-.414 6.413.339.281.634.252 1.522-.148 1.576-.71 4.474-.671 5.687.078 1.388.857 1.779.772 2.15-.467zm-14.123-.616c.528-1.46.477-4.17-.1-5.325-.312-.625-1.055-1.324-2.038-1.917-1.34-.81-1.74-.919-3.009-.821-1.952.15-3.966 1.38-4.721 2.884-.734 1.461-.781 4.957-.077 5.66.429.43.581.43 2.115 0 2.137-.6 4.11-.566 5.693.097.695.292 1.382.498 1.526.46.144-.04.42-.506.611-1.038z" style="fill:#000;stroke-width:.281117"/><g aria-label="Popular" style="font-weight:700;font-size:9.52506px;font-family:Andika;-inkscape-font-specification:&quot;Andika Bold&quot;;text-align:center;text-anchor:middle;opacity:.99;fill:#008b28;stroke-width:.264585"><path d="M10.073 45.193v.41q0 .688.01 1.218.013.53.06.805H8.678q.05-.28.06-.805.01-.53.01-1.218v-2.628q0-.684-.01-1.27-.01-.59-.06-.87l.223-.004q.228-.01.586-.019.358-.01.767-.014.414-.01.786-.01.754 0 1.321.238.568.237.884.716.316.475.316 1.186 0 .717-.326 1.237-.32.517-.897.796t-1.344.279q-.489 0-.921-.047zm0-3.334v2.325q.149.023.358.037.21.01.423.01.675 0 1.028-.312.354-.316.354-.944 0-.507-.317-.823-.311-.317-1.046-.317-.27 0-.437.01-.168.004-.363.014zm4.255 3.409q0-.8.317-1.354.32-.553.85-.837.531-.288 1.159-.288.66 0 1.163.288.502.284.786.837.283.554.283 1.354t-.32 1.353q-.317.549-.847.837-.53.284-1.158.284-.656 0-1.158-.284-.503-.288-.79-.837-.285-.553-.285-1.353zm1.303 0q0 .665.246 1.046.251.382.73.382.452 0 .712-.382.265-.381.265-1.046 0-.67-.251-1.051-.247-.382-.726-.382-.45 0-.716.382-.26.381-.26 1.05z"/><path d="M19.747 42.882h1.279q.05.102.102.302.051.2.084.488.32-.39.749-.637.432-.246.94-.246.52 0 .906.302.39.302.605.833.218.53.218 1.214 0 .795-.279 1.38-.279.582-.753.903-.47.321-1.042.321-.368 0-.66-.116-.289-.112-.614-.303v1q0 .559.027.921.028.363.089.66h-1.419V45.37q0-.87-.037-1.479-.037-.614-.195-1.01zm1.535 2.023v1.325q.358.26.539.35.186.088.428.088.428 0 .753-.372.326-.372.326-1.019 0-.632-.237-1.005-.237-.376-.66-.376-.312 0-.633.26-.316.256-.516.749z" style="fill:#fcde02;fill-opacity:1"/><path d="M30.444 47.626H29.21q-.065-.15-.144-.382-.074-.237-.111-.479-.41.48-.856.73-.442.247-.921.247-1.456 0-1.456-2V44.37q0-.442-.014-.753-.014-.317-.079-.735h1.395v2.581q0 .633.135.921.14.284.493.284.214 0 .451-.158.238-.159.438-.386.204-.228.297-.442V44.37q0-.307-.004-.535-.005-.228-.028-.446-.019-.223-.06-.507h1.394v2.65q0 .675.08 1.191.079.512.223.903z" style="fill:#ffcd00;fill-opacity:1"/><path d="M32.979 40.184v5.233q0 .297.009.72.014.424.032.828.024.405.052.66h-1.396V42.37q0-1.362-.093-2.186z" style="fill:#db0a13;fill-opacity:1"/><path d="M39.262 47.626h-1.237q-.065-.112-.126-.368-.06-.26-.097-.54-.033-.283-.033-.455v-.265q-.172.4-.479.805-.307.4-.716.67-.41.269-.898.269-.586 0-.99-.516-.405-.521-.405-1.507 0-.554.163-1.074.162-.526.502-.945.34-.418.865-.665.526-.246 1.246-.246.507 0 1.005.06.502.056.898.15v2.162q0 .879.083 1.479.084.595.219.986zm-1.633-3.395v-.307q-.097-.024-.283-.056-.186-.037-.484-.037-.488 0-.767.27-.28.27-.396.702-.116.432-.116.916 0 .41.149.665.153.251.363.251.195 0 .404-.195.214-.196.414-.498.2-.302.363-.637.163-.335.256-.623.097-.293.097-.451zm4.005 3.395h-1.302v-2.86q0-.684-.08-1.163-.074-.48-.153-.721h1.28q.036.098.069.27.037.172.07.348.032.177.046.289.34-.484.744-.74.405-.26.721-.26.437 0 .702.242.266.237.386.632.121.396.121.87l-1.037.163q-.023-.317-.153-.507-.13-.196-.428-.196-.154 0-.354.172-.2.173-.376.442-.172.265-.256.554z" style="fill:red;fill-opacity:1"/></g></svg>