<svg xmlns="http://www.w3.org/2000/svg" width="200" height="200" viewBox="0 0 52.917 52.917"><rect width="52.917" height="52.917" y="-.001" rx="14.552" ry="14.552" style="display:inline;fill:#000;fill-opacity:1;fill-rule:nonzero;stroke:none;stroke-width:.5;stroke-linecap:butt;stroke-linejoin:round;stroke-miterlimit:4;stroke-dasharray:none;stroke-dashoffset:0;stroke-opacity:.909449;paint-order:normal"/><path d="M15.742 2.645h21.432c7.24-.016 13.112 5.857 13.096 13.097v9.128c0 6.553-.73 12.304-11.906 12.304H14.55c-12.082 0-11.906-6.917-11.906-12.304v-9.128C2.629 8.502 8.502 2.629 15.742 2.645Z" style="display:inline;fill:#52ce3c;stroke-width:.450003;stroke-linejoin:round;stroke-opacity:.909449;fill-opacity:1"/><path d="M52.916 37.173v1.191a14.52 14.52 0 0 1-14.552 14.552H14.552A14.52 14.52 0 0 1 0 38.364v-1.19z" style="display:inline;fill:#000;stroke-width:.5;stroke-linejoin:round;stroke-opacity:.909449"/><g style="fill:#000;fill-opacity:1;stroke-width:.803442"><path d="M148.21 217.452c1.453-.434.96 1.416 1.045 2.302-.067 1.138.29 2.24.264 3.378h-8.991c.338-1.27.243-2.608.68-3.865.04-1.707 2.313-1.184 3.473-1.664 1.173-.092 2.368.086 3.529-.152m-29.3-2.547c1.232-.104 2.552.54 3.804.76 1.847.41 3.736.6 5.513 1.28 1.173.51 3.025.178 3.76 1.258.106 1.638.196 3.318-.186 4.93h-14.81c.718-1.897 1.264-3.868 1.408-5.896.204-.773.386-1.542.511-2.332m29.833-1.65c1.054-.09.333 2.054.405 2.78-1.584.565-3.355.461-5.042.508-.84.22-3.147.718-1.403-.415 1.85-1.279 3.905-2.185 6.04-2.874m-28.268-2.352c1.276-.305 2.493.726 3.768.923 2.532.807 4.827 2.185 7.207 3.34 1.875.98-.62 1.81-1.59 1.017-1.378-.165-2.626-.839-4.006-.992-2.168-.386-4.332-.858-6.423-1.523-.117-.718.565-2.05 1.045-2.765" style="fill:#000;fill-opacity:1;stroke-width:.803441" transform="matrix(1.29751 0 0 1.27407 -146.41 -246.483)"/><path d="M128.584 200.805c1.375-.454 2.673.229 3.742 1.026.994 1.162 2.37.544 3.662.858 1.359.639 2.48-.054 3.626-.7 1.274-.44 2.689-.974 4.034-.598 1.117.492 2.438.83 3.124 1.917 1.22 1.085 1.849 2.742 1.695 4.37.291 1.345.337 2.745.18 4.113-1.215.968-2.892 1.073-4.18 1.937-1.236.757-2.685 1.318-3.627 2.456-.519 1.42-.801 2.934-1.057 4.424-.384.678.277 2.651-.805 2.524h-5.854c.047-1.905-.134-3.828.19-5.71 0-1.149.29-2.774-1.218-3.126-2.994-1.499-5.94-3.148-9.188-4.043-1.861-.192-.623-1.982-.137-2.922.653-1.293 1.517-2.471 2.497-3.536.92-1.19 1.69-2.678 3.317-2.99m.213 7.405c1.136-.399 2.116-1.087 3.002-1.888 1.301-1.027-.294-2.609-1.318-1.3-.643.81-1.594 1.223-2.346 1.88-.452.512-.292 1.768.662 1.308m17.659.315c1.094-.58-.547-1.948-1.277-2.628-.73-.68-2.865-1.471-2.29.227.685.933 1.679 1.69 2.665 2.279.291.088.598.119.901.122" style="fill:#000;fill-opacity:1;stroke-width:.803441" transform="matrix(1.29751 0 0 1.27407 -146.41 -246.483)"/></g><path d="M8.582 45.128v.333q0 .561.008.993.011.432.05.656H7.444q.042-.228.05-.656.007-.432.007-.993v-2.14q0-.558-.007-1.035-.008-.482-.05-.709l.182-.004q.186-.007.478-.015t.625-.011q.337-.008.64-.008.614 0 1.077.193.462.194.72.584.258.386.258.966 0 .584-.266 1.008-.261.421-.731.648-.47.228-1.095.228-.398 0-.75-.038zm0-2.717v1.895q.122.018.292.03.17.007.345.007.55 0 .837-.253.288-.258.288-.77 0-.413-.257-.67-.254-.258-.853-.258-.22 0-.356.007-.137.004-.296.012zm4.738 4.699h-1.062v-2.33q0-.558-.064-.948-.06-.39-.125-.588h1.042q.03.08.057.22.03.14.057.284.026.144.038.235.276-.394.606-.602.33-.212.587-.212.356 0 .572.197.216.193.315.515t.099.709l-.846.132q-.018-.257-.125-.413-.106-.159-.348-.159-.125 0-.288.14-.163.14-.307.36-.14.216-.209.451zm6.597 0H18.91q-.053-.091-.102-.3-.05-.212-.08-.44-.026-.23-.026-.37v-.217q-.14.326-.39.656-.25.326-.584.546-.334.22-.732.22-.477 0-.807-.421-.33-.424-.33-1.228 0-.45.133-.875.133-.429.41-.77.276-.34.704-.541.428-.201 1.016-.201.413 0 .818.049.41.045.732.121v1.762q0 .717.068 1.205.068.486.178.804zm-1.33-2.767v-.25q-.08-.019-.231-.045-.152-.03-.394-.03-.398 0-.626.22-.227.22-.322.572-.094.352-.094.746 0 .334.12.542.126.205.296.205.16 0 .33-.16.174-.159.337-.405.163-.246.296-.52.133-.272.208-.507.08-.239.08-.368zm5.669-.89v3.562q0 .5-.159.857-.16.356-.428.58-.265.227-.599.333-.33.106-.67.106-.505 0-.906-.136-.398-.137-.667-.357l.322-.792q.238.194.511.315.277.121.588.121.238 0 .454-.087.22-.087.357-.284.136-.197.136-.523v-.701q-.288.352-.629.519-.337.163-.64.163-.338 0-.637-.167-.3-.167-.485-.53-.186-.368-.186-.97 0-.436.121-.846.126-.409.383-.735.258-.33.66-.52.401-.192.962-.192.372 0 .773.09.406.092.74.194zm-1.06 2.08v-1.31q-.296-.152-.588-.152-.334 0-.538.178-.205.178-.3.454-.09.273-.09.569 0 .553.177.754.179.2.448.2.208 0 .458-.177.254-.182.432-.516zm5.437-.924v2.5h-1.06v-2.16q0-.36-.043-.541-.037-.182-.132-.246-.095-.065-.262-.065-.212 0-.413.167-.197.163-.307.42v2.426h-1.06v-2.33q0-.558-.065-.948-.065-.39-.125-.588h.985q.064.11.106.266.046.155.072.284.349-.379.648-.5.303-.125.633-.125.371 0 .603.193.235.193.33.443.356-.382.67-.507.315-.13.614-.13.576 0 .8.372.223.368.223 1.069v2.5h-1.06v-2.083q0-.383-.039-.58-.038-.201-.132-.273-.095-.076-.266-.076-.208 0-.405.14-.193.137-.315.372zm7.204 2.501H34.83q-.053-.091-.102-.3-.05-.212-.08-.44-.026-.23-.026-.37v-.217q-.14.326-.39.656-.25.326-.584.546-.334.22-.731.22-.478 0-.808-.421-.33-.424-.33-1.228 0-.45.133-.875.133-.429.41-.77.276-.34.704-.541.429-.201 1.016-.201.413 0 .819.049.409.045.731.121v1.762q0 .717.068 1.205.068.486.178.804zm-1.33-2.767v-.25q-.08-.019-.231-.045-.152-.03-.394-.03-.398 0-.625.22-.228.22-.323.572-.094.352-.094.746 0 .334.121.542.125.205.296.205.159 0 .33-.16.174-.159.337-.405.163-.246.295-.52.133-.272.209-.507.08-.239.08-.368zm4.76 1.702v.849q-.27.17-.52.239-.25.072-.454.072-.356 0-.652-.095-.295-.099-.474-.341-.174-.247-.174-.682v-3.98h1.061v3.252q0 .428.05.637.049.208.155.273.106.06.277.06.272 0 .73-.284zm-.057-1.986h-2.937v-.758h2.937Zm.929-.815h1.117v2.065q0 .243.008.592.011.345.027.675.019.33.041.534h-1.137V45.1q0-.553-.01-1.053-.009-.504-.046-.804zm-.076-1.383q0-.292.185-.477.19-.186.478-.186.292 0 .477.186.186.185.186.477 0 .296-.186.482-.185.181-.477.181-.288 0-.478-.181-.185-.186-.185-.482zm5.37 1.577-.167.917q-.197-.178-.432-.265-.235-.088-.557-.088-.425 0-.682.33-.254.33-.254.883 0 .5.239.819.242.318.697.318.34 0 .587-.11.247-.11.493-.307l.114.91q-.258.174-.588.265-.33.095-.754.095-.508 0-.928-.228-.421-.227-.671-.663-.25-.44-.25-1.061 0-.591.242-1.061.247-.474.69-.747.447-.276 1.046-.276.375 0 .67.08.296.079.505.189z" aria-label="Pragmatic" style="font-weight:700;font-size:7.76116px;font-family:Andika;-inkscape-font-specification:&quot;Andika Bold&quot;;text-align:center;text-anchor:middle;opacity:.99;fill:#52ce3c;stroke-width:.264585"/></svg>