<svg xmlns="http://www.w3.org/2000/svg" width="200" height="200" viewBox="0 0 52.917 52.917"><rect width="52.917" height="52.917" y="-.001" rx="14.552" ry="14.552" style="display:inline;fill:#000;fill-opacity:1;fill-rule:nonzero;stroke:none;stroke-width:.5;stroke-linecap:butt;stroke-linejoin:round;stroke-miterlimit:4;stroke-dasharray:none;stroke-dashoffset:0;stroke-opacity:.909449;paint-order:normal"/><path d="M52.916 37.173v1.191a14.52 14.52 0 0 1-14.552 14.552H14.552A14.52 14.52 0 0 1 0 38.364v-1.19z" style="display:inline;fill:#000;stroke-width:.5;stroke-linejoin:round;stroke-opacity:.909449;fill-opacity:1"/><path d="M15.742 2.645h21.432c7.24-.016 13.112 5.857 13.096 13.097v9.128c0 6.553-.73 12.304-11.906 12.304H14.55c-12.082 0-11.906-6.917-11.906-12.304v-9.128C2.629 8.502 8.502 2.629 15.742 2.645Z" style="display:inline;fill:#2bf935;stroke-width:.450003;stroke-linejoin:round;stroke-opacity:.909449;fill-opacity:1"/><path d="M26.168 3.345c-.741 0-1.55.48-1.55.919 0 .24-.441.436-1.256.554-3.03.442-5.934 2.284-7.228 4.587-.482.857-.81 1.076-2.37 1.578-3.25 1.047-4.393 2.989-2.706 4.599.888.846 1.516 1.083 3.903 1.468 1.019.165 2.507.41 3.307.544 1.972.332 9.517.192 11.64-.217.946-.181 2.036-.556 2.423-.831.387-.276.821-.5.965-.5.144 0 .662-.388 1.15-.86.489-.474 1.363-1.099 1.943-1.39 1.402-.703 1.744-1.795 1.046-3.342-1.076-2.386-3.955-4.452-7.57-5.433-.92-.25-2.011-.729-2.423-1.065-.41-.336-.984-.611-1.274-.611zM37.25 14.39c-.375.03-.85.358-1.524.967-1.651 1.491-3.187 2.226-6.143 2.938-2.74.66-2.944.673-6.871.404-2.226-.152-4.94-.397-6.031-.544-3.584-.484-3.261-.582-3.517 1.065-.363 2.33-.07 6.482.626 8.864a95.4 95.4 0 0 0 .653 2.183c.035.068 4.013.962 6.207 1.394 2.15.424 10.964.104 13.493-.49 1.237-.29 3.023-.69 3.97-.886l1.719-.358.175-1.319c.532-4.004-.04-8.592-1.6-12.827-.36-.977-.676-1.43-1.157-1.391zm3.444.071c-1.767.007-1.93.228-1.282 1.746.303.711.67 1.889.816 2.616.145.728.397 1.978.56 2.778.175.864.242 2.83.163 4.837-.119 3.042-.089 3.369.3 3.254.238-.07.79-.21 1.227-.312.436-.102 1.403-.451 2.149-.777 1.286-.563 1.373-.665 1.688-1.977.73-3.041-.227-8.93-1.718-10.579-.719-.793-2.679-1.59-3.903-1.586zm-31.33.97c-.103.01-.193.073-.297.177-.333.333-.294.603.308 2.108.38.95.691 1.803.691 1.896 0 .093.447 1.085.992 2.204l.993 2.034.167-2.572c.093-1.415.244-2.873.336-3.241.14-.56.075-.669-.398-.669-.31 0-1.047-.482-1.636-1.071-.642-.642-.93-.885-1.157-.865zM7.49 16.619a1.603 1.603 0 0 0-.455.062c-.588.147-.703.297-.59.766.226.937 3.333 9.479 3.87 10.638.269.582.576 1.356.683 1.72.107.363.499 1.256.872 1.984.614 1.197 1.665 3.91 1.55 4-.026.02-.559.294-1.183.608-1.397.705-1.767 1.446-1.526 3.055.316 2.106 1.98 3.438 4.91 3.928 2.546.426 3.86-.157 4.877-2.162.959-1.893.725-3.525-.8-5.598l-1.136-1.542-1.404.373c-.773.206-1.433.376-1.467.378-.226.011-1.805-3.641-2.972-6.877-.762-2.11-1.717-4.438-2.124-5.173-.407-.735-1.064-2.25-1.46-3.366-.768-2.161-1.066-2.767-1.645-2.794zm12.127 2.868c1.477-.001 2.663.723 3.777 2.308 1.037 1.476 1.264 3.605.486 4.566-.463.572-.767.66-2.475.717-1.071.036-2.066.022-2.212-.03a65.868 65.868 0 0 0-1.852-.559c-.873-.254-1.736-.58-1.918-.722-.19-.15-.33-.853-.33-1.644 0-1.12.152-1.594.8-2.49 1.077-1.486 2.221-2.145 3.724-2.146zm12.68.583c.608-.01 1.083.161 2.037.641 1.9.958 2.508 1.79 2.661 3.644.114 1.367.071 1.499-.733 2.233-.47.43-1.214.852-1.653.94-.973.195-5.209.174-5.758-.028-.953-.35-1.324-.96-1.318-2.169.013-2.534 1.843-4.86 4.09-5.197.254-.038.471-.061.674-.064zm-25.54 1.005c-.31 0-.423 2.392-.128 4.41l.307 2.103 1.102.415c.606.228 1.18.43 1.276.447.144.026-1.34-4.434-2.366-7.112-.069-.182-.133-.263-.19-.263zM0 24.393v10.296c2.144 3.456 4.47 6.737 6.2 8.567 2.925 3.093 7.03 4.928 12.2 5.455 1.624.165 6.773.279 11.642.256l8.732-.04 3.273-1.096c1.8-.602 4.003-1.53 4.895-2.06 2.196-1.31 3.991-2.493 5.484-3.64.318-1.2.491-2.463.491-3.767v-13.23c-1.515.721-2.846 1.424-3.885 2.06-3.09 1.891-5.378 2.78-9.107 3.535-1.943.394-4.485.946-5.65 1.228-1.442.35-3.549.563-6.614.671-4.717.166-7.589-.077-10.915-.921l-1.822-.463.52 1.23.52 1.231 1.615-.125c1.511-.118 1.66-.077 2.315.628 1.78 1.918 2.73 5.27 1.993 7.033-.71 1.7-3.45 3.342-5.603 3.357-1.665.012-4.312-1.305-5.556-2.764-1.02-1.195-1.057-1.303-1.002-2.958.063-1.954.19-2.173 1.652-2.876.844-.405 1.026-.615.901-1.037-.32-1.088-2.042-5.039-2.32-5.327-.16-.165-.945-.509-1.745-.764-1.93-.617-4.007-1.654-4.498-2.247-.281-.34-1.252-.93-3.716-2.232z" style="fill:#000;stroke-width:.264585"/><path d="m11.694 42.342-.194 1.141q-.508-.254-.887-.374-.38-.12-.836-.12-.4 0-.663.223-.258.22-.258.487 0 .185.099.323t.387.271q.289.134.853.31.861.267 1.313.69.457.417.457 1.097 0 .616-.315 1.081-.314.465-.84.728-.525.258-1.162.258-.676 0-1.257-.163-.582-.164-.94-.418l.216-1.184q.46.37.96.542.5.168 1.021.168.28 0 .525-.099.25-.103.4-.297.156-.194.156-.465 0-.18-.108-.336-.107-.155-.422-.314-.314-.164-.939-.362-.676-.215-1.029-.474-.353-.258-.482-.572-.125-.315-.125-.698 0-.289.125-.607.125-.319.392-.595.267-.28.68-.452.418-.176 1-.176.55 0 .981.094.43.09.892.293zm5.072 4.07H13.46v-.775h2.21q0-.453-.199-.655-.194-.207-.577-.207-.465 0-.693.323-.224.319-.224 1.077 0 .685.276.999.275.314.81.314.421 0 .826-.099.41-.099.81-.336l.09.974q-.465.237-.9.331-.43.1-.935.1-.568 0-1.059-.255-.49-.254-.792-.753-.297-.5-.297-1.232 0-.715.258-1.24.263-.526.745-.814.482-.293 1.145-.293.543 0 .892.19.353.185.551.499.203.314.284.706.082.388.082.793v.176q.004.117.004.177zm5.254 1.938h-1.206v-2.37q0-.594-.163-.822-.16-.233-.504-.233-.245 0-.474.142-.228.138-.4.349-.168.211-.246.435v2.498h-1.205V45.7q0-.633-.074-1.076-.069-.444-.142-.668h1.184q.035.086.065.237.035.15.065.306.03.155.043.254.409-.47.805-.676.396-.207.853-.207.654 0 1.025.452.374.448.374 1.335v2.692zm4.436-4.134-.168 1.012q-.241-.125-.612-.267-.366-.143-.814-.143-.378 0-.525.13-.142.129-.142.258 0 .103.056.177.06.073.241.137.185.06.564.138.448.086.818.246.375.155.595.417.224.263.224.672 0 .414-.25.745-.25.332-.676.526-.422.193-.948.193-.577 0-1.063-.146-.487-.15-.767-.349l.237-1.055q.319.263.775.422.461.16.84.16.306 0 .495-.117.194-.12.194-.271 0-.19-.198-.332-.198-.146-.814-.28-.612-.133-.935-.318-.318-.186-.434-.418-.117-.233-.117-.504 0-.16.086-.388.087-.232.293-.456.211-.228.573-.379.366-.155.922-.155.525 0 .913.112.387.108.637.233zm1.27-.259h1.27v2.347q0 .276.01.672.012.392.03.766.02.375.047.608H27.79v-2.283q0-.628-.013-1.197-.009-.573-.052-.913zm-.086-1.572q0-.331.211-.542.215-.211.543-.211.331 0 .542.21.211.212.211.543 0 .336-.21.547-.212.207-.543.207-.328 0-.543-.207-.21-.21-.21-.547zm5.663 4.755v.964q-.306.194-.59.272-.284.081-.517.081-.405 0-.74-.107-.336-.112-.539-.388-.198-.28-.198-.775v-4.522h1.206v3.695q0 .487.056.724.056.236.177.31.12.069.314.069.31 0 .831-.323zm-.065-2.257h-3.337v-.861h3.337zm1.055-.926h1.27v2.347q0 .276.01.672.012.392.03.766.021.375.047.608h-1.292v-2.283q0-.628-.013-1.197-.008-.573-.052-.913zm-.086-1.572q0-.331.211-.542.216-.211.543-.211.332 0 .543.21.21.212.21.543 0 .336-.21.547-.211.207-.543.207-.327 0-.543-.207-.21-.21-.21-.547zm5.517 1.572h1.326q-.12.246-.25.538-.129.289-.24.556l-.177.435q-.082.207-.22.543l-.293.74q-.16.4-.323.814-.159.41-.301.767H38.19q-.19-.478-.405-1.012-.211-.539-.41-1.03-.193-.49-.326-.822-.07-.177-.181-.44-.112-.262-.241-.55-.125-.293-.246-.539h1.344l1.007 3.144zm5.719 2.455h-3.308v-.775h2.21q0-.453-.198-.655-.194-.207-.578-.207-.465 0-.693.323-.224.319-.224 1.077 0 .685.276.999.275.314.81.314.421 0 .826-.099.41-.099.81-.336l.09.974q-.465.237-.9.331-.43.1-.934.1-.569 0-1.06-.255-.49-.254-.792-.753-.297-.5-.297-1.232 0-.715.258-1.24.263-.526.745-.814.483-.293 1.146-.293.542 0 .891.19.353.185.551.499.203.314.285.706.081.388.081.793v.176q.005.117.005.177z" aria-label="Sensitive" style="font-weight:700;font-size:8.8195px;font-family:Andika;-inkscape-font-specification:&quot;Andika Bold&quot;;text-align:center;text-anchor:middle;opacity:.99;fill:#2bf935;stroke-width:.264585"/></svg>