<svg xmlns="http://www.w3.org/2000/svg" width="200" height="200" viewBox="0 0 52.917 52.917"><rect width="52.917" height="52.917" y="-.001" rx="14.552" ry="14.552" style="display:inline;fill:#000;fill-opacity:1;fill-rule:nonzero;stroke:none;stroke-width:.5;stroke-linecap:butt;stroke-linejoin:round;stroke-miterlimit:4;stroke-dasharray:none;stroke-dashoffset:0;stroke-opacity:.909449;paint-order:normal"/><path d="M15.742 2.645h21.432c7.24-.016 13.112 5.857 13.096 13.097v9.128c0 6.553-.73 12.304-11.906 12.304H14.55c-12.082 0-11.906-6.917-11.906-12.304v-9.128C2.629 8.502 8.502 2.629 15.742 2.645Z" style="display:inline;fill:#417cb1;stroke-width:.450003;stroke-linejoin:round;stroke-opacity:.909449;fill-opacity:1"/><path d="M50.27 16.424v7.634c0 7.718-.73 14.49-11.906 14.49H14.55c-12.082 0-11.906-8.146-11.906-14.49v-7.634s3.298 4.985 5.953 4.985c2.655 0 5.953-4.985 5.953-4.985s3.298 4.985 5.953 4.985c2.655 0 5.954-4.985 5.954-4.985s3.298 4.985 5.953 4.985c2.655 0 5.953-4.985 5.953-4.985s3.298 4.985 5.953 4.985c2.655 0 5.953-4.985 5.953-4.985z" style="display:inline;fill:#0d2953;fill-opacity:1;stroke-width:.488362;stroke-linejoin:round;stroke-opacity:.909449"/><circle cx="-12.958" cy="5.107" r=".022" style="fill:#0f3060;stroke:#000;stroke-width:.264585"/><path d="M15.064 38.997c-.093-.278-.68-.406-2.016-.44-.266-.005-.673-.182-.904-.392-.23-.21-.54-.306-.687-.216-.406.25-1.726-.427-1.726-.885 0-.223-.18-.474-.4-.558-.698-.268-.294-2.174.797-3.758l.944-1.37.16-3.822c.262-6.192.39-6.663 2.685-9.807 1.44-1.974 3.965-4.192 5.867-5.156 3.008-1.522 6.524-2.203 8.83-1.708 1.283.275 1.454.46.87.946-.196.162-.537.84-.76 1.51-.366 1.104-.368 1.269-.02 1.8.33.505 2.632 1.605 3.36 1.605.53 0 2.187 1.01 2.187 1.332 0 .262-.158.29-.675.124-.37-.12-1.08-.28-1.577-.355-.497-.075-1.95-.673-3.23-1.33-2.256-1.153-2.35-1.18-3.02-.808-1.968 1.088-2.896 1.527-3.227 1.527-.2 0-.927.159-1.613.352-.686.194-1.718.474-2.292.624-1.485.386-2.8 2.11-3.615 4.742-1.346 4.347-.972 10.574.74 12.285.917.917 1.4 3.176.805 3.77-.386.387-1.353.379-1.483-.012zm20.23.145c-.46-.186-.399-2.215.075-2.48.21-.118.773-1.364 1.25-2.77.81-2.39.857-2.694.715-4.641-.083-1.146-.318-2.801-.52-3.678a43.132 43.132 0 0 1-.584-3.114c-.128-.914-.438-1.837-.777-2.313-.476-.67-.496-.767-.128-.625.24.092.59.167.778.167.427 0 .928.98 1.318 2.575.41 1.675.833 2.084 2.162 2.084h1.09l-.178 1.287c-.098.707-.176 2.39-.174 3.739.004 2.224.076 2.606.767 4.102.87 1.877.945 2.516.34 2.854-.397.222-.398.288-.01 1.099l.41.86-.74.164c-.514.113-.87.044-1.169-.225-.335-.303-.492-.323-.725-.09-.233.232-.402.23-.78-.006-.29-.18-.486-.203-.486-.055 0 .136-.193.25-.429.253-.236.002-.705.22-1.042.485-.65.51-.688.52-1.164.328zm-11.62-2.063c-2.48-.263-4.73-.86-6.162-1.637-1.495-.81-1.644-1.005-2.073-2.7-.684-2.71-.74-3.532-.42-6.04.281-2.196.511-3.034 1.526-5.564.543-1.355 1.598-2.074 3.643-2.483 2.388-.478 4.568-1.29 5.41-2.014l.64-.55 2.036 1.074c1.142.602 2.767 1.226 3.7 1.42 1.01.21 1.76.507 1.91.757.134.227.501.727.815 1.112.38.466.687 1.356.92 2.664.191 1.08.511 2.875.711 3.987.46 2.553.46 3.365.013 4.797-.198.632-.537 1.785-.754 2.563-.59 2.11-.799 2.177-8.572 2.71-.809.057-2.313.013-3.343-.096zM34.2 27.663c.52-.438.761-.9.862-1.655.076-.577.216-1.303.31-1.614.135-.45.062-.595-.353-.703-.35-.092-.522-.33-.522-.73 0-.325-.166-.643-.368-.706-.712-.222-.986-.357-1.523-.748-.51-.37-.575-.36-1.103.194-.309.323-1.02.72-1.58.884-.613.179-1.323.642-1.779 1.16-.64.73-.758 1.062-.758 2.15 0 .766.154 1.505.382 1.83.354.506.57.545 3.046.545 2.478 0 2.715-.042 3.386-.607zm-16.127-.706c.007-.928 1.306-3.173 2.106-3.64.635-.371.89-.397 1.59-.162 1.576.53 2.165 1.33 2.4 3.259.128 1.047.24 1.256.704 1.32.49.07.551-.025.55-.857-.004-2.444-1.21-4.25-3.243-4.853-1.144-.34-1.313-.333-2.274.092-.57.252-1.108.572-1.193.709-.085.138-.376.192-.646.12-.717-.186-1.212.338-1.106 1.175.06.472-.018.717-.228.717-.447 0-.67 1.353-.34 2.075.445.977 1.672 1.01 1.68.045zm20.784-3.513c-.256-.067-.487-.464-.59-1.014a10.27 10.27 0 0 0-.506-1.71c-.405-.97-.31-1.17.635-1.358.794-.16 1.665-.954 2.01-1.836l.221-.57 1.716.928c2.006 1.083 2.09 1.36.956 3.166-1.296 2.068-1.89 2.565-3.025 2.533-.548-.016-1.185-.078-1.417-.14zm-3.514-4.895c-1.23-1.328-.577-3.635 1.246-4.397 1.11-.464 2.447-.065 2.934.877.775 1.498.293 2.692-1.434 3.553-1.562.778-1.999.773-2.746-.033zm-2.808-2.36c-2.04-.656-3.144-1.183-3.293-1.572-.344-.896 1.964-3.67 3.88-4.662.977-.508 1.63-.16 2.71 1.443.94 1.397 1.08 1.915.512 1.915-.574 0-2.014 1.598-2.247 2.492l-.213.818z" style="fill:#fff;fill-opacity:1;stroke-width:.245195"/><path d="M52.916 37.173v1.191a14.52 14.52 0 0 1-14.552 14.552H14.552A14.52 14.52 0 0 1 0 38.364v-1.19z" style="display:inline;fill:#000;stroke-width:.5;stroke-linejoin:round;stroke-opacity:.909449"/><path d="m11.795 41.384-.194 1.141q-.508-.254-.887-.374-.38-.121-.836-.121-.4 0-.663.224-.258.22-.258.487 0 .185.099.323.099.137.387.27.289.134.853.31.861.268 1.314.69.456.418.456 1.098 0 .616-.314 1.081-.315.465-.84.728-.525.258-1.163.258-.676 0-1.257-.163-.582-.164-.94-.418l.216-1.184q.461.37.96.542.5.168 1.021.168.28 0 .526-.099.25-.103.4-.297.155-.194.155-.465 0-.181-.108-.336-.107-.155-.422-.314-.314-.164-.938-.362-.676-.216-1.03-.474-.353-.258-.482-.573-.125-.314-.125-.697 0-.289.125-.607.125-.32.392-.595.267-.28.68-.452.418-.176 1-.176.55 0 .981.094.43.09.892.293zm1.434 1.615h1.27v2.347q0 .276.009.672.013.392.03.766.021.375.047.608h-1.292v-2.283q0-.629-.013-1.197-.008-.573-.051-.913zm-.086-1.572q0-.331.21-.542.216-.211.543-.211.332 0 .543.21.21.212.21.543 0 .336-.21.547-.211.207-.543.207-.327 0-.542-.207-.211-.211-.211-.547zm6.954 5.965h-1.205v-2.369q0-.594-.164-.823-.16-.232-.504-.232-.245 0-.474.142-.228.138-.4.349-.168.21-.245.435v2.498h-1.206v-2.649q0-.633-.073-1.077-.07-.443-.143-.667h1.185q.034.086.064.237.035.15.065.306.03.155.043.254.409-.47.805-.676.396-.207.853-.207.654 0 1.025.452.374.448.374 1.335v2.692zm4.509-4.173-.19 1.042q-.223-.203-.49-.302-.267-.099-.633-.099-.483 0-.775.375-.289.375-.289 1.003 0 .569.271.93.276.362.793.362.387 0 .667-.125t.56-.348l.13 1.033q-.294.198-.668.301-.375.108-.857.108-.577 0-1.055-.258-.478-.259-.762-.754-.285-.5-.285-1.206 0-.671.276-1.205.28-.539.784-.849.508-.314 1.188-.314.427 0 .762.09.336.09.573.216zm4.78 2.235H26.08v-.776h2.21q0-.452-.199-.654-.194-.207-.577-.207-.465 0-.693.323-.224.319-.224 1.077 0 .684.275.999.276.314.81.314.422 0 .827-.099.409-.099.81-.336l.09.974q-.465.236-.9.331-.43.1-.935.1-.568 0-1.059-.255-.491-.254-.792-.754-.298-.5-.298-1.231 0-.715.259-1.24.263-.526.745-.814.482-.293 1.145-.293.543 0 .892.19.353.185.551.499.202.314.284.706.082.388.082.792v.177q.004.116.004.177zm2.261 1.938h-1.206v-2.649q0-.633-.073-1.077-.069-.443-.142-.667h1.184q.035.09.065.25.034.16.065.323.03.163.043.267.314-.448.689-.685.374-.241.667-.241.405 0 .65.224.246.22.358.585.112.366.112.806l-.96.15q-.022-.292-.143-.469-.12-.18-.396-.18-.142 0-.327.159-.185.159-.349.409-.16.245-.237.512zm3.165-4.393h1.27v2.347q0 .276.01.672.012.392.03.766.021.375.047.608h-1.292v-2.283q0-.629-.013-1.197-.009-.573-.052-.913zm-.086-1.572q0-.331.211-.542.216-.211.543-.211.331 0 .543.21.21.212.21.543 0 .336-.21.547-.212.207-.543.207-.327 0-.543-.207-.21-.211-.21-.547zm5.664 4.754v.965q-.307.194-.59.271-.285.082-.518.082-.404 0-.74-.107-.336-.112-.539-.388-.198-.28-.198-.775v-4.521h1.206v3.694q0 .487.056.723.056.237.177.31.12.07.314.07.31 0 .831-.324zm-.065-2.256h-3.338v-.861h3.338zm2.932 2.562-.568 1.258-1.245-3.217q-.116-.297-.28-.66-.159-.365-.409-.869h1.348zm1.482-1.96-1.034 2.865q-.301.83-.611 1.266-.306.439-.642.598-.336.16-.728.16-.603 0-1.098-.367l.301-.938q.138.112.362.215.224.108.435.108.134 0 .267-.074.138-.073.284-.284.147-.206.31-.611l.164-.388q.103-.237.207-.482.107-.246.172-.44.18-.624.349-1.222.168-.599.306-1.099.142-.503.232-.835h1.348q-.224.5-.37.866-.147.361-.254.663z" aria-label="Sincerity" style="font-weight:700;font-size:8.8195px;font-family:Andika;-inkscape-font-specification:&quot;Andika Bold&quot;;text-align:center;text-anchor:middle;opacity:.99;fill:#417cb1;stroke-width:.264585"/></svg>