<svg xmlns="http://www.w3.org/2000/svg" width="200" height="200" viewBox="0 0 52.917 52.917"><rect width="52.917" height="52.917" y="-.001" rx="14.552" ry="14.552" style="display:inline;fill:#000;fill-opacity:1;fill-rule:nonzero;stroke:none;stroke-width:.5;stroke-linecap:butt;stroke-linejoin:round;stroke-miterlimit:4;stroke-dasharray:none;stroke-dashoffset:0;stroke-opacity:.909449;paint-order:normal"/><path d="M15.742 2.645h21.432c7.24-.016 13.112 5.857 13.096 13.097v9.128c0 6.553-.73 12.304-11.906 12.304H14.55c-12.082 0-11.906-6.917-11.906-12.304v-9.128C2.629 8.502 8.502 2.629 15.742 2.645Z" style="display:inline;fill:#79a4ce;stroke-width:.450003;stroke-linejoin:round;stroke-opacity:.909449;fill-opacity:1"/><path d="M52.916 37.173v1.191a14.52 14.52 0 0 1-14.552 14.552H14.552A14.52 14.52 0 0 1 0 38.364v-1.19z" style="display:inline;fill:#000;stroke-width:.5;stroke-linejoin:round;stroke-opacity:.909449"/><path d="M50.27 18.388v6.482c0 6.553-.73 12.304-11.906 12.304H14.55c-12.082 0-11.906-6.917-11.906-12.304v-6.482s3.298 4.233 5.953 4.233c2.655 0 5.953-4.233 5.953-4.233s3.298 4.233 5.953 4.233c2.655 0 5.954-4.233 5.954-4.233s3.298 4.233 5.953 4.233c2.655 0 5.953-4.233 5.953-4.233s3.298 4.233 5.953 4.233c2.655 0 5.953-4.233 5.953-4.233z" style="display:inline;fill:#0f3060;fill-opacity:1;stroke-width:.450003;stroke-linejoin:round;stroke-opacity:.909449"/><circle cx="-12.958" cy="5.107" r=".022" style="fill:#0f3060;stroke:#000;stroke-width:.264585"/><path d="M15.015 40.568c-.093-.278-.68-.406-2.016-.439-.266-.006-.673-.183-.904-.393-.231-.209-.54-.306-.687-.216-.406.251-1.726-.427-1.726-.885 0-.223-.18-.474-.4-.558-.698-.268-.294-2.174.797-3.758l.944-1.37.16-3.822c.262-6.192.39-6.663 2.685-9.807 1.44-1.974 3.965-4.192 5.867-5.156 3.008-1.522 6.524-2.203 8.83-1.708 1.283.275 1.454.46.869.946-.195.162-.536.841-.759 1.51-.366 1.104-.368 1.269-.02 1.8.33.505 2.632 1.605 3.359 1.605.53 0 2.188 1.01 2.188 1.332 0 .262-.158.29-.675.124-.37-.12-1.08-.28-1.577-.355-.497-.075-1.95-.673-3.23-1.329-2.256-1.154-2.35-1.18-3.02-.809-1.968 1.088-2.896 1.527-3.227 1.527-.2 0-.927.159-1.613.352-.686.194-1.718.474-2.292.624-1.485.386-2.8 2.111-3.615 4.742-1.346 4.347-.972 10.574.739 12.285.918.917 1.4 3.176.806 3.77-.386.387-1.353.379-1.483-.012zm20.229.145c-.46-.186-.398-2.215.076-2.48.21-.118.773-1.364 1.25-2.77.81-2.39.857-2.694.715-4.641-.083-1.146-.318-2.801-.521-3.678a43.132 43.132 0 0 1-.583-3.114c-.128-.914-.438-1.837-.777-2.313-.476-.669-.496-.767-.128-.625.24.092.59.167.778.167.427 0 .928.98 1.318 2.575.409 1.675.833 2.084 2.162 2.084h1.089l-.177 1.287c-.098.707-.176 2.39-.174 3.739.004 2.224.076 2.606.767 4.102.869 1.877.945 2.516.34 2.854-.397.222-.398.288-.011 1.099l.41.861-.74.163c-.513.113-.87.044-1.168-.225-.335-.303-.492-.323-.725-.09-.233.232-.402.23-.781-.006-.29-.18-.485-.203-.485-.055 0 .136-.193.25-.429.253-.236.002-.705.22-1.042.485-.651.51-.688.52-1.164.328zM23.625 38.65c-2.481-.263-4.73-.86-6.162-1.637-1.495-.81-1.644-1.005-2.073-2.7-.684-2.709-.741-3.532-.42-6.04.281-2.196.511-3.034 1.526-5.564.543-1.355 1.598-2.074 3.643-2.483 2.388-.478 4.568-1.29 5.41-2.014l.64-.55 2.036 1.074c1.142.602 2.767 1.226 3.7 1.42 1.01.21 1.76.507 1.909.757.135.227.502.727.816 1.112.38.466.687 1.356.92 2.664.191 1.08.511 2.875.711 3.987.459 2.553.46 3.365.013 4.797-.198.632-.537 1.785-.754 2.563-.59 2.111-.799 2.177-8.572 2.711-.809.056-2.313.012-3.343-.097zm10.525-9.416c.52-.438.761-.9.862-1.655.076-.577.216-1.303.31-1.614.135-.45.062-.595-.353-.703-.351-.092-.522-.33-.522-.729 0-.326-.166-.644-.368-.707-.712-.222-.986-.357-1.523-.748-.51-.37-.575-.36-1.103.194-.309.323-1.02.721-1.581.884-.612.179-1.322.642-1.778 1.16-.641.731-.758 1.062-.758 2.15 0 .766.154 1.505.382 1.83.354.506.57.545 3.046.545 2.478 0 2.715-.042 3.386-.607zm-16.127-.706c.007-.928 1.306-3.173 2.106-3.64.635-.371.89-.397 1.59-.162 1.576.53 2.165 1.33 2.4 3.259.128 1.047.24 1.256.704 1.321.49.07.551-.026.55-.858-.004-2.444-1.21-4.25-3.243-4.853-1.144-.34-1.313-.333-2.274.092-.571.252-1.108.572-1.193.709-.085.138-.376.192-.646.121-.717-.187-1.212.337-1.106 1.174.06.472-.018.717-.228.717-.447 0-.67 1.353-.34 2.075.445.977 1.672 1.01 1.68.045zm20.784-3.513c-.256-.067-.487-.464-.59-1.014a10.27 10.27 0 0 0-.506-1.71c-.405-.969-.311-1.169.635-1.358.794-.159 1.665-.954 2.01-1.836l.221-.569 1.716.927c2.006 1.083 2.089 1.36.956 3.166-1.296 2.068-1.89 2.565-3.025 2.533-.548-.016-1.185-.078-1.417-.139zm-3.514-4.895c-1.23-1.328-.577-3.635 1.246-4.397 1.11-.464 2.447-.065 2.934.877.775 1.498.293 2.692-1.434 3.553-1.562.778-1.999.773-2.746-.033zm-2.808-2.36c-2.041-.656-3.144-1.183-3.293-1.572-.344-.896 1.964-3.67 3.879-4.662.978-.508 1.63-.16 2.71 1.443.94 1.397 1.08 1.915.513 1.915-.574 0-2.014 1.598-2.247 2.492l-.213.818z" style="fill:#000;stroke-width:.245195"/><path d="m10.035 40.945-.217 1.278q-.569-.285-.993-.42-.425-.135-.936-.135-.449 0-.743.251-.29.246-.29.545 0 .208.112.362.11.154.434.304.323.15.955.347.964.299 1.47.772.512.468.512 1.23 0 .69-.352 1.21-.352.521-.94.815-.589.29-1.303.29-.757 0-1.408-.184-.651-.183-1.052-.467l.241-1.327q.517.415 1.076.608.56.188 1.143.188.314 0 .589-.11.28-.117.448-.334.174-.217.174-.52 0-.203-.12-.377-.121-.173-.474-.352-.352-.183-1.051-.405-.757-.241-1.153-.53-.395-.29-.54-.642-.14-.352-.14-.781 0-.324.14-.68.14-.357.439-.666.3-.314.762-.507.468-.197 1.12-.197.616 0 1.099.106.482.101.998.328zm1.606 1.809h1.423v2.628q0 .309.01.753.014.438.033.858.025.42.053.68h-1.446v-2.556q0-.704-.015-1.341-.01-.641-.058-1.022zm-.096-1.76q0-.372.236-.609.241-.236.608-.236.371 0 .608.236.236.237.236.608 0 .376-.236.613-.237.231-.608.231-.367 0-.608-.231-.236-.237-.236-.613zm7.789 6.679h-1.35V45.02q0-.665-.184-.92-.178-.261-.564-.261-.275 0-.53.159-.256.154-.449.39-.188.237-.275.488v2.797h-1.35v-2.966q0-.71-.082-1.206-.078-.497-.16-.747h1.327q.038.096.072.265.039.169.073.342.033.174.048.285.458-.526.902-.757.443-.232.955-.232.733 0 1.148.506.42.502.42 1.496v3.014zM24.384 43l-.212 1.167q-.251-.227-.55-.338-.3-.11-.709-.11-.54 0-.868.419-.323.42-.323 1.124 0 .636.304 1.041.308.406.887.406.434 0 .748-.14.313-.14.627-.391l.144 1.158q-.328.221-.747.337-.42.12-.96.12-.646 0-1.182-.289-.535-.29-.854-.844-.318-.56-.318-1.35 0-.753.309-1.35.313-.604.878-.95.569-.353 1.33-.353.478 0 .855.101.376.102.641.241zm5.354 2.503h-3.704v-.868h2.474q0-.507-.222-.734-.217-.231-.646-.231-.521 0-.777.362-.25.357-.25 1.205 0 .767.308 1.12.309.352.907.352.472 0 .926-.111.458-.111.907-.377l.1 1.09q-.52.266-1.007.372-.482.11-1.047.11-.636 0-1.186-.284-.55-.284-.888-.844-.333-.56-.333-1.38 0-.8.29-1.388.294-.589.834-.912.54-.328 1.283-.328.608 0 .999.212.395.208.617.56.227.352.318.79.092.435.092.888v.198q.005.13.005.198zm2.532 2.17h-1.35v-2.966q0-.71-.083-1.206-.077-.497-.159-.747h1.327q.038.1.072.28.039.178.072.361.034.183.049.299.352-.502.771-.767.42-.27.748-.27.453 0 .728.25.275.247.4.657.126.41.126.902l-1.076.169q-.024-.328-.159-.526-.135-.203-.444-.203-.159 0-.366.179-.208.178-.39.458-.18.275-.266.574zm3.545-4.919h1.423v2.628q0 .309.01.753.014.438.033.858.024.42.053.68h-1.447v-2.556q0-.704-.014-1.341-.01-.641-.058-1.022zm-.097-1.76q0-.372.237-.609.241-.236.608-.236.37 0 .607.236.237.237.237.608 0 .376-.237.613-.236.231-.607.231-.367 0-.608-.231-.237-.237-.237-.613zm6.342 5.324v1.08q-.342.217-.66.304-.318.092-.579.092-.453 0-.83-.12-.375-.126-.602-.435-.222-.313-.222-.868v-5.064h1.35v4.138q0 .545.063.81t.198.347q.135.078.352.078.347 0 .93-.362zm-.071-2.528H38.25v-.964h3.738zm3.284 2.87-.636 1.409-1.394-3.603q-.13-.333-.314-.738-.178-.41-.458-.974h1.51zm1.66-2.194-1.158 3.207q-.338.931-.685 1.418-.343.492-.719.67-.376.179-.815.179-.675 0-1.23-.41l.338-1.051q.154.125.405.24.25.121.487.121.15 0 .3-.082.153-.082.317-.318.164-.231.348-.685l.183-.434q.116-.265.232-.54.12-.275.192-.492.203-.7.391-1.37.188-.67.343-1.23.159-.564.26-.935h1.51q-.251.559-.415.969-.164.405-.285.743z" aria-label="Sincerity" style="font-weight:700;font-size:9.87784px;font-family:Andika;-inkscape-font-specification:&quot;Andika Bold&quot;;text-align:center;text-anchor:middle;opacity:.99;fill:#0f3060;stroke-width:.264585"/></svg>