<?xml version="1.0" encoding="UTF-8" standalone="no"?>
<svg
   width="200"
   height="200"
   viewBox="0 0 52.917 52.917"
   version="1.1"
   id="svg14"
   sodipodi:docname="sincerity.svg"
   inkscape:version="1.2.2 (732a01da63, 2022-12-09)"
   xmlns:inkscape="http://www.inkscape.org/namespaces/inkscape"
   xmlns:sodipodi="http://sodipodi.sourceforge.net/DTD/sodipodi-0.dtd"
   xmlns="http://www.w3.org/2000/svg"
   xmlns:svg="http://www.w3.org/2000/svg">
  <defs
     id="defs18" />
  <sodipodi:namedview
     id="namedview16"
     pagecolor="#ffffff"
     bordercolor="#000000"
     borderopacity="0.25"
     inkscape:showpageshadow="2"
     inkscape:pageopacity="0.0"
     inkscape:pagecheckerboard="0"
     inkscape:deskcolor="#d1d1d1"
     showgrid="false"
     inkscape:zoom="1.905"
     inkscape:cx="20.734908"
     inkscape:cy="113.91076"
     inkscape:window-width="1920"
     inkscape:window-height="970"
     inkscape:window-x="-12"
     inkscape:window-y="-12"
     inkscape:window-maximized="1"
     inkscape:current-layer="svg14" />
  <rect
     width="52.917"
     height="52.917"
     y="-.001"
     rx="14.552"
     ry="14.552"
     style="display:inline;fill:#000;fill-opacity:1;fill-rule:nonzero;stroke:none;stroke-width:.5;stroke-linecap:butt;stroke-linejoin:round;stroke-miterlimit:4;stroke-dasharray:none;stroke-dashoffset:0;stroke-opacity:.909449;paint-order:normal"
     id="rect2" />
  <path
     d="M15.742 2.645h21.432c7.24-.016 13.112 5.857 13.096 13.097v9.128c0 6.553-.73 12.304-11.906 12.304H14.55c-12.082 0-11.906-6.917-11.906-12.304v-9.128C2.629 8.502 8.502 2.629 15.742 2.645Z"
     style="display:inline;fill:#417cb1;stroke-width:0.450003;stroke-linejoin:round;stroke-opacity:0.909449;fill-opacity:1"
     id="path4" />
  <path
     d="m 50.27,16.423801 v 7.634151 c 0,7.717769 -0.73,14.490986 -11.906,14.490986 H 14.55 c -12.082,0 -11.906,-8.146469 -11.906,-14.490986 v -7.634151 c 0,0 3.298,4.985399 5.953,4.985399 2.655,0 5.953,-4.985399 5.953,-4.985399 0,0 3.298,4.985399 5.953,4.985399 2.655,0 5.954,-4.985399 5.954,-4.985399 0,0 3.298,4.985399 5.953,4.985399 2.655,0 5.953,-4.985399 5.953,-4.985399 0,0 3.298,4.985399 5.953,4.985399 2.655,0 5.953,-4.985399 5.953,-4.985399 z"
     style="display:inline;fill:#0d2953;fill-opacity:1;stroke-width:0.488362;stroke-linejoin:round;stroke-opacity:0.909449"
     id="path8" />
  <circle
     cx="-12.958"
     cy="5.107"
     r=".022"
     style="fill:#0f3060;stroke:#000;stroke-width:.264585"
     id="circle10" />
  <path
     d="m 15.064105,38.996642 c -0.093,-0.278 -0.68,-0.406 -2.016,-0.439 -0.266,-0.006 -0.673,-0.183 -0.904,-0.393 -0.231,-0.209 -0.54,-0.306 -0.687,-0.216 -0.406,0.251 -1.726,-0.427 -1.726,-0.885 0,-0.223 -0.18,-0.474 -0.4,-0.558 -0.698,-0.268 -0.294,-2.174 0.797,-3.758 l 0.944,-1.37 0.16,-3.822 c 0.262,-6.192 0.39,-6.663 2.685,-9.807 1.44,-1.974 3.965,-4.192 5.867,-5.156 3.008,-1.522 6.524,-2.203 8.83,-1.708 1.283,0.275 1.454,0.46 0.869,0.946 -0.195,0.162 -0.536,0.841 -0.759,1.51 -0.366,1.104 -0.368,1.269 -0.02,1.8 0.33,0.505 2.632,1.605 3.359,1.605 0.53,0 2.188,1.01 2.188,1.332 0,0.262 -0.158,0.29 -0.675,0.124 -0.37,-0.12 -1.08,-0.28 -1.577,-0.355 -0.497,-0.075 -1.95,-0.673 -3.23,-1.329 -2.256,-1.154 -2.35,-1.18 -3.02,-0.809 -1.968,1.088 -2.896,1.527 -3.227,1.527 -0.2,0 -0.927,0.159 -1.613,0.352 -0.686,0.194 -1.718,0.474 -2.292,0.624 -1.485,0.386 -2.8,2.111 -3.615,4.742 -1.346,4.347 -0.972,10.574 0.739,12.285 0.918,0.917 1.4,3.176 0.806,3.77 -0.386,0.387 -1.353,0.379 -1.483,-0.012 z m 20.229,0.145 c -0.46,-0.186 -0.398,-2.215 0.076,-2.48 0.21,-0.118 0.773,-1.364 1.25,-2.77 0.81,-2.39 0.857,-2.694 0.715,-4.641 -0.083,-1.146 -0.318,-2.801 -0.521,-3.678 a 43.132,43.132 0 0 1 -0.583,-3.114 c -0.128,-0.914 -0.438,-1.837 -0.777,-2.313 -0.476,-0.669 -0.496,-0.767 -0.128,-0.625 0.24,0.092 0.59,0.167 0.778,0.167 0.427,0 0.928,0.98 1.318,2.575 0.409,1.675 0.833,2.084 2.162,2.084 h 1.089 l -0.177,1.287 c -0.098,0.707 -0.176,2.39 -0.174,3.739 0.004,2.224 0.076,2.606 0.767,4.102 0.869,1.877 0.945,2.516 0.34,2.854 -0.397,0.222 -0.398,0.288 -0.011,1.099 l 0.41,0.861 -0.74,0.163 c -0.513,0.113 -0.87,0.044 -1.168,-0.225 -0.335,-0.303 -0.492,-0.323 -0.725,-0.09 -0.233,0.232 -0.402,0.23 -0.781,-0.006 -0.29,-0.18 -0.485,-0.203 -0.485,-0.055 0,0.136 -0.193,0.25 -0.429,0.253 -0.236,0.002 -0.705,0.22 -1.042,0.485 -0.651,0.51 -0.688,0.52 -1.164,0.328 z m -11.619,-2.063 c -2.481,-0.263 -4.73,-0.86 -6.162,-1.637 -1.495,-0.81 -1.644,-1.005 -2.073,-2.7 -0.684,-2.709 -0.741,-3.532 -0.42,-6.04 0.281,-2.196 0.511,-3.034 1.526,-5.564 0.543,-1.355 1.598,-2.074 3.643,-2.483 2.388,-0.478 4.568,-1.29 5.41,-2.014 l 0.64,-0.55 2.036,1.074 c 1.142,0.602 2.767,1.226 3.7,1.42 1.01,0.21 1.76,0.507 1.909,0.757 0.135,0.227 0.502,0.727 0.816,1.112 0.38,0.466 0.687,1.356 0.92,2.664 0.191,1.08 0.511,2.875 0.711,3.987 0.459,2.553 0.46,3.365 0.013,4.797 -0.198,0.632 -0.537,1.785 -0.754,2.563 -0.59,2.111 -0.799,2.177 -8.572,2.711 -0.809,0.056 -2.313,0.012 -3.343,-0.097 z m 10.525,-9.416 c 0.52,-0.438 0.761,-0.9 0.862,-1.655 0.076,-0.577 0.216,-1.303 0.31,-1.614 0.135,-0.45 0.062,-0.595 -0.353,-0.703 -0.351,-0.092 -0.522,-0.33 -0.522,-0.729 0,-0.326 -0.166,-0.644 -0.368,-0.707 -0.712,-0.222 -0.986,-0.357 -1.523,-0.748 -0.51,-0.37 -0.575,-0.36 -1.103,0.194 -0.309,0.323 -1.02,0.721 -1.581,0.884 -0.612,0.179 -1.322,0.642 -1.778,1.16 -0.641,0.731 -0.758,1.062 -0.758,2.15 0,0.766 0.154,1.505 0.382,1.83 0.354,0.506 0.57,0.545 3.046,0.545 2.478,0 2.715,-0.042 3.386,-0.607 z m -16.127,-0.706 c 0.007,-0.928 1.306,-3.173 2.106,-3.64 0.635,-0.371 0.89,-0.397 1.59,-0.162 1.576,0.53 2.165,1.33 2.4,3.259 0.128,1.047 0.24,1.256 0.704,1.321 0.49,0.07 0.551,-0.026 0.55,-0.858 -0.004,-2.444 -1.21,-4.25 -3.243,-4.853 -1.144,-0.34 -1.313,-0.333 -2.274,0.092 -0.571,0.252 -1.108,0.572 -1.193,0.709 -0.085,0.138 -0.376,0.192 -0.646,0.121 -0.717,-0.187 -1.212,0.337 -1.106,1.174 0.06,0.472 -0.018,0.717 -0.228,0.717 -0.447,0 -0.67,1.353 -0.34,2.075 0.445,0.977 1.672,1.01 1.68,0.045 z m 20.784,-3.513 c -0.256,-0.067 -0.487,-0.464 -0.59,-1.014 a 10.27,10.27 0 0 0 -0.506,-1.71 c -0.405,-0.969 -0.311,-1.169 0.635,-1.358 0.794,-0.159 1.665,-0.954 2.01,-1.836 l 0.221,-0.569 1.716,0.927 c 2.006,1.083 2.089,1.36 0.956,3.166 -1.296,2.068 -1.89,2.565 -3.025,2.533 -0.548,-0.016 -1.185,-0.078 -1.417,-0.139 z m -3.514,-4.895 c -1.23,-1.328 -0.577,-3.635 1.246,-4.397 1.11,-0.464 2.447,-0.065 2.934,0.877 0.775,1.498 0.293,2.692 -1.434,3.553 -1.562,0.778 -1.999,0.773 -2.746,-0.033 z m -2.808,-2.36 c -2.041,-0.656 -3.144,-1.183 -3.293,-1.572 -0.344,-0.896 1.964,-3.67 3.879,-4.6620003 0.978,-0.508 1.63,-0.16 2.71,1.4430003 0.94,1.397 1.08,1.915 0.513,1.915 -0.574,0 -2.014,1.598 -2.247,2.492 l -0.213,0.818 z"
     style="fill:#ffffff;fill-opacity:1;stroke-width:0.245195"
     id="path12" />
  <path
     d="M52.916 37.173v1.191a14.52 14.52 0 0 1-14.552 14.552H14.552A14.52 14.52 0 0 1 0 38.364v-1.19z"
     style="display:inline;fill:#000;stroke-width:0.5;stroke-linejoin:round;stroke-opacity:0.909449"
     id="path6" />
  <g
     aria-label="Sincerity"
     id="text2177"
     style="font-weight:bold;font-size:9.87784px;font-family:Andika;-inkscape-font-specification:'Andika Bold';text-align:center;text-anchor:middle;opacity:0.99;fill:#417cb1;stroke-width:0.264585">
    <path
       d="M 10.035127,40.944828 9.8180843,42.222966 Q 9.2489509,41.938399 8.8245125,41.803351 8.400074,41.668302 7.8888186,41.668302 q -0.4485542,0 -0.7427672,0.250805 -0.2893899,0.245981 -0.2893899,0.545017 0,0.207396 0.1109328,0.361738 0.1109328,0.154341 0.4340847,0.303859 0.323152,0.149518 0.9549865,0.347268 0.9646329,0.299036 1.4710651,0.771706 0.5112554,0.467847 0.5112554,1.229907 0,0.689712 -0.352091,1.210614 -0.352091,0.520902 -0.940517,0.815115 -0.588426,0.28939 -1.3022543,0.28939 -0.7572368,0 -1.4083639,-0.183281 Q 5.6846326,47.42716 5.28431,47.142593 l 0.2411582,-1.32637 q 0.5160786,0.414792 1.0755656,0.607719 0.559487,0.188103 1.1430899,0.188103 0.3135057,0 0.588426,-0.110932 0.2797435,-0.115756 0.4485543,-0.332799 0.1736339,-0.217042 0.1736339,-0.520901 0,-0.202573 -0.1205791,-0.376207 Q 8.7135797,45.097572 8.3614887,44.919115 8.0093977,44.735835 7.3100389,44.513969 6.5528022,44.272811 6.1573027,43.983421 5.7618033,43.694031 5.6171083,43.34194 5.4772366,42.989849 5.4772366,42.560588 q 0,-0.323152 0.1398717,-0.680067 0.1398718,-0.356914 0.438908,-0.665596 0.2990361,-0.313506 0.7620599,-0.506432 0.4678469,-0.19775 1.1189741,-0.19775 0.617365,0 1.0996814,0.106109 0.4823164,0.101287 0.9983953,0.327976 z"
       id="path2340" />
    <path
       d="m 11.64124,42.753514 h 1.422834 q 0,0.361737 0,0.771706 0,0.409969 0,0.795822 0,0.38103 0,0.665597 0,0.284567 0,0.3955 0,0.308682 0.0096,0.752413 0.01447,0.438908 0.03376,0.858523 0.02412,0.419616 0.05306,0.680066 h -1.446949 q 0,-0.347267 0,-0.815114 0,-0.467847 0,-0.930871 0,-0.467847 0,-0.810291 0,-0.704182 -0.01447,-1.34084 -0.0096,-0.641481 -0.05788,-1.022511 z m -0.09646,-1.760455 q 0,-0.371383 0.236335,-0.607718 0.241158,-0.236335 0.607719,-0.236335 0.371383,0 0.607718,0.236335 0.236335,0.236335 0.236335,0.607718 0,0.376207 -0.236335,0.612542 -0.236335,0.231512 -0.607718,0.231512 -0.366561,0 -0.607719,-0.231512 -0.236335,-0.236335 -0.236335,-0.612542 z"
       id="path2342" />
    <path
       d="m 19.334187,47.673141 h -1.350486 q 0,0 0,-0.207396 0,-0.207396 0,-0.535371 0,-0.327975 0,-0.694535 0,-0.366561 0,-0.689713 0,-0.327975 0,-0.525725 0,-0.665596 -0.18328,-0.921224 -0.178457,-0.260451 -0.56431,-0.260451 -0.274921,0 -0.530549,0.159164 -0.255627,0.154342 -0.448554,0.390677 -0.188103,0.236335 -0.27492,0.487139 v 2.797435 h -1.350486 q 0,0 0,-0.212219 0,-0.217042 0,-0.559487 0,-0.342444 0,-0.742767 0,-0.405146 0,-0.786176 0,-0.385853 0,-0.665596 0,-0.709006 -0.08199,-1.205791 -0.07717,-0.496786 -0.159164,-0.747591 h 1.32637 q 0.03859,0.09646 0.07235,0.265274 0.03859,0.168811 0.07235,0.342445 0.03376,0.173634 0.04823,0.284566 0.458201,-0.525724 0.901932,-0.757236 0.443731,-0.231512 0.954987,-0.231512 0.733121,0 1.147913,0.506432 0.419615,0.501609 0.419615,1.495181 0,0.241158 0,0.617365 0,0.371384 0,0.786176 0,0.414792 0,0.781352 0,0.366561 0,0.598073 0,0.231511 0,0.231511 z"
       id="path2344" />
    <path
       d="m 24.384039,42.999495 -0.212219,1.167206 q -0.250804,-0.226689 -0.549841,-0.337621 -0.299036,-0.110933 -0.709005,-0.110933 -0.540194,0 -0.868169,0.419615 -0.323152,0.419615 -0.323152,1.123797 0,0.636658 0.303859,1.041804 0.308683,0.405146 0.887462,0.405146 0.434085,0 0.747591,-0.139872 0.313505,-0.139872 0.627011,-0.390676 l 0.144695,1.157559 q -0.327975,0.221866 -0.74759,0.337621 -0.419616,0.12058 -0.95981,0.12058 -0.646304,0 -1.181675,-0.28939 -0.535371,-0.28939 -0.8537,-0.844054 -0.318329,-0.559487 -0.318329,-1.350486 0,-0.752414 0.308682,-1.350486 0.313506,-0.602895 0.877816,-0.950163 0.569134,-0.352091 1.331194,-0.352091 0.477493,0 0.8537,0.101286 0.376206,0.101287 0.64148,0.241158 z"
       id="path2346" />
    <path
       d="m 29.737751,45.502718 h -3.70419 v -0.86817 h 2.474284 q 0,-0.506432 -0.221866,-0.733121 -0.217042,-0.231512 -0.646304,-0.231512 -0.520902,0 -0.776529,0.361738 -0.250805,0.356914 -0.250805,1.205791 0,0.766883 0.308683,1.118974 0.308682,0.352091 0.906754,0.352091 0.472671,0 0.926048,-0.110933 0.458201,-0.110933 0.906755,-0.376207 l 0.101286,1.090035 q -0.520901,0.265274 -1.008041,0.371384 -0.482316,0.110933 -1.046627,0.110933 -0.636657,0 -1.186498,-0.284567 Q 25.97086,47.224587 25.633239,46.6651 25.30044,46.105613 25.30044,45.285675 q 0,-0.800645 0.28939,-1.389071 0.294213,-0.588426 0.834408,-0.911578 0.540194,-0.327975 1.282961,-0.327975 0.607719,0 0.998395,0.212219 0.3955,0.207396 0.617365,0.559487 0.226689,0.352091 0.318329,0.790999 0.09164,0.434085 0.09164,0.887462 0,0.06752 0,0.19775 0.0048,0.130225 0.0048,0.19775 z"
       id="path2348" />
    <path
       d="m 32.269913,47.673141 h -1.350486 v -2.966245 q 0,-0.709006 -0.08199,-1.205791 -0.07717,-0.496786 -0.159165,-0.747591 h 1.32637 q 0.03859,0.101287 0.07235,0.279744 0.03859,0.178457 0.07235,0.361737 0.03376,0.18328 0.04823,0.299036 0.352091,-0.501609 0.771706,-0.766883 0.419616,-0.270097 0.747591,-0.270097 0.453377,0 0.728298,0.250804 0.27492,0.245982 0.400322,0.655951 0.125402,0.409969 0.125402,0.901931 l -1.075565,0.168811 q -0.02412,-0.327975 -0.159165,-0.525725 -0.135048,-0.202573 -0.443731,-0.202573 -0.159164,0 -0.36656,0.178457 -0.207396,0.178457 -0.390676,0.458201 -0.178458,0.27492 -0.265274,0.573957 z"
       id="path2350" />
    <path
       d="m 35.814939,42.753514 h 1.422834 q 0,0.361737 0,0.771706 0,0.409969 0,0.795822 0,0.38103 0,0.665597 0,0.284567 0,0.3955 0,0.308682 0.0096,0.752413 0.01447,0.438908 0.03376,0.858523 0.02412,0.419616 0.05306,0.680066 h -1.446949 q 0,-0.347267 0,-0.815114 0,-0.467847 0,-0.930871 0,-0.467847 0,-0.810291 0,-0.704182 -0.01447,-1.34084 -0.0096,-0.641481 -0.05788,-1.022511 z m -0.09646,-1.760455 q 0,-0.371383 0.236335,-0.607718 0.241158,-0.236335 0.607719,-0.236335 0.371383,0 0.607718,0.236335 0.236335,0.236335 0.236335,0.607718 0,0.376207 -0.236335,0.612542 -0.236335,0.231512 -0.607718,0.231512 -0.366561,0 -0.607719,-0.231512 -0.236335,-0.236335 -0.236335,-0.612542 z"
       id="path2352" />
    <path
       d="m 42.060934,46.317832 v 1.080389 q -0.342444,0.217043 -0.660773,0.303859 -0.318329,0.09164 -0.57878,0.09164 -0.453377,0 -0.829584,-0.12058 -0.376207,-0.125402 -0.602896,-0.434084 -0.221865,-0.313506 -0.221865,-0.86817 0,-1.268492 0,-2.532161 0,-1.268492 0,-2.532161 h 1.350486 q 0,1.032157 0,2.069137 0,1.032157 0,2.069138 0,0.545017 0.0627,0.810291 0.0627,0.265274 0.19775,0.347268 0.135048,0.07717 0.352091,0.07717 0.347267,0 0.93087,-0.361738 z m -0.07235,-2.527338 h -3.737952 v -0.964632 h 3.737952 z"
       id="path2354" />
    <path
       d="m 45.273163,46.660277 -0.636658,1.408364 -1.393895,-3.602904 q -0.130225,-0.332798 -0.313505,-0.737944 -0.178457,-0.409969 -0.458201,-0.974279 h 1.509651 z m 1.659168,-2.19454 -1.157559,3.207404 q -0.337622,0.930871 -0.68489,1.418011 -0.342444,0.491962 -0.718651,0.67042 -0.376207,0.178457 -0.815115,0.178457 -0.675243,0 -1.229907,-0.409969 l 0.337622,-1.05145 q 0.154341,0.125402 0.405146,0.241158 0.250804,0.120579 0.487139,0.120579 0.149518,0 0.299036,-0.08199 0.154342,-0.08199 0.318329,-0.318328 0.163988,-0.231512 0.347268,-0.68489 0.07235,-0.173634 0.18328,-0.434084 0.115756,-0.265275 0.231512,-0.540195 0.120579,-0.27492 0.192927,-0.491963 0.202573,-0.699358 0.390676,-1.369778 0.188103,-0.67042 0.342445,-1.229907 0.159164,-0.56431 0.26045,-0.935694 h 1.509651 q -0.250805,0.559487 -0.414792,0.969456 -0.163988,0.405146 -0.284567,0.742767 z"
       id="path2356" />
  </g>
</svg>
