<?xml version="1.0" encoding="UTF-8" standalone="no"?>
<svg
   width="200"
   height="200"
   viewBox="0 0 52.917 52.917"
   version="1.1"
   id="svg14"
   sodipodi:docname="sincerity.svg"
   inkscape:version="1.2.2 (732a01da63, 2022-12-09)"
   xmlns:inkscape="http://www.inkscape.org/namespaces/inkscape"
   xmlns:sodipodi="http://sodipodi.sourceforge.net/DTD/sodipodi-0.dtd"
   xmlns="http://www.w3.org/2000/svg"
   xmlns:svg="http://www.w3.org/2000/svg">
  <defs
     id="defs18" />
  <sodipodi:namedview
     id="namedview16"
     pagecolor="#ffffff"
     bordercolor="#000000"
     borderopacity="0.25"
     inkscape:showpageshadow="2"
     inkscape:pageopacity="0.0"
     inkscape:pagecheckerboard="0"
     inkscape:deskcolor="#d1d1d1"
     showgrid="false"
     inkscape:zoom="2.6940768"
     inkscape:cx="110.42744"
     inkscape:cy="127.31634"
     inkscape:window-width="1920"
     inkscape:window-height="970"
     inkscape:window-x="-12"
     inkscape:window-y="-12"
     inkscape:window-maximized="1"
     inkscape:current-layer="text2177" />
  <rect
     width="52.917"
     height="52.917"
     y="-.001"
     rx="14.552"
     ry="14.552"
     style="display:inline;fill:#000;fill-opacity:1;fill-rule:nonzero;stroke:none;stroke-width:.5;stroke-linecap:butt;stroke-linejoin:round;stroke-miterlimit:4;stroke-dasharray:none;stroke-dashoffset:0;stroke-opacity:.909449;paint-order:normal"
     id="rect2" />
  <path
     d="M15.742 2.645h21.432c7.24-.016 13.112 5.857 13.096 13.097v9.128c0 6.553-.73 12.304-11.906 12.304H14.55c-12.082 0-11.906-6.917-11.906-12.304v-9.128C2.629 8.502 8.502 2.629 15.742 2.645Z"
     style="display:inline;fill:#417cb1;stroke-width:0.450003;stroke-linejoin:round;stroke-opacity:0.909449;fill-opacity:1"
     id="path4" />
  <path
     d="m 50.27,16.423801 v 7.634151 c 0,7.717769 -0.73,14.490986 -11.906,14.490986 H 14.55 c -12.082,0 -11.906,-8.146469 -11.906,-14.490986 v -7.634151 c 0,0 3.298,4.985399 5.953,4.985399 2.655,0 5.953,-4.985399 5.953,-4.985399 0,0 3.298,4.985399 5.953,4.985399 2.655,0 5.954,-4.985399 5.954,-4.985399 0,0 3.298,4.985399 5.953,4.985399 2.655,0 5.953,-4.985399 5.953,-4.985399 0,0 3.298,4.985399 5.953,4.985399 2.655,0 5.953,-4.985399 5.953,-4.985399 z"
     style="display:inline;fill:#0d2953;fill-opacity:1;stroke-width:0.488362;stroke-linejoin:round;stroke-opacity:0.909449"
     id="path8" />
  <circle
     cx="-12.958"
     cy="5.107"
     r=".022"
     style="fill:#0f3060;stroke:#000;stroke-width:.264585"
     id="circle10" />
  <path
     d="m 15.064105,38.996642 c -0.093,-0.278 -0.68,-0.406 -2.016,-0.439 -0.266,-0.006 -0.673,-0.183 -0.904,-0.393 -0.231,-0.209 -0.54,-0.306 -0.687,-0.216 -0.406,0.251 -1.726,-0.427 -1.726,-0.885 0,-0.223 -0.18,-0.474 -0.4,-0.558 -0.698,-0.268 -0.294,-2.174 0.797,-3.758 l 0.944,-1.37 0.16,-3.822 c 0.262,-6.192 0.39,-6.663 2.685,-9.807 1.44,-1.974 3.965,-4.192 5.867,-5.156 3.008,-1.522 6.524,-2.203 8.83,-1.708 1.283,0.275 1.454,0.46 0.869,0.946 -0.195,0.162 -0.536,0.841 -0.759,1.51 -0.366,1.104 -0.368,1.269 -0.02,1.8 0.33,0.505 2.632,1.605 3.359,1.605 0.53,0 2.188,1.01 2.188,1.332 0,0.262 -0.158,0.29 -0.675,0.124 -0.37,-0.12 -1.08,-0.28 -1.577,-0.355 -0.497,-0.075 -1.95,-0.673 -3.23,-1.329 -2.256,-1.154 -2.35,-1.18 -3.02,-0.809 -1.968,1.088 -2.896,1.527 -3.227,1.527 -0.2,0 -0.927,0.159 -1.613,0.352 -0.686,0.194 -1.718,0.474 -2.292,0.624 -1.485,0.386 -2.8,2.111 -3.615,4.742 -1.346,4.347 -0.972,10.574 0.739,12.285 0.918,0.917 1.4,3.176 0.806,3.77 -0.386,0.387 -1.353,0.379 -1.483,-0.012 z m 20.229,0.145 c -0.46,-0.186 -0.398,-2.215 0.076,-2.48 0.21,-0.118 0.773,-1.364 1.25,-2.77 0.81,-2.39 0.857,-2.694 0.715,-4.641 -0.083,-1.146 -0.318,-2.801 -0.521,-3.678 a 43.132,43.132 0 0 1 -0.583,-3.114 c -0.128,-0.914 -0.438,-1.837 -0.777,-2.313 -0.476,-0.669 -0.496,-0.767 -0.128,-0.625 0.24,0.092 0.59,0.167 0.778,0.167 0.427,0 0.928,0.98 1.318,2.575 0.409,1.675 0.833,2.084 2.162,2.084 h 1.089 l -0.177,1.287 c -0.098,0.707 -0.176,2.39 -0.174,3.739 0.004,2.224 0.076,2.606 0.767,4.102 0.869,1.877 0.945,2.516 0.34,2.854 -0.397,0.222 -0.398,0.288 -0.011,1.099 l 0.41,0.861 -0.74,0.163 c -0.513,0.113 -0.87,0.044 -1.168,-0.225 -0.335,-0.303 -0.492,-0.323 -0.725,-0.09 -0.233,0.232 -0.402,0.23 -0.781,-0.006 -0.29,-0.18 -0.485,-0.203 -0.485,-0.055 0,0.136 -0.193,0.25 -0.429,0.253 -0.236,0.002 -0.705,0.22 -1.042,0.485 -0.651,0.51 -0.688,0.52 -1.164,0.328 z m -11.619,-2.063 c -2.481,-0.263 -4.73,-0.86 -6.162,-1.637 -1.495,-0.81 -1.644,-1.005 -2.073,-2.7 -0.684,-2.709 -0.741,-3.532 -0.42,-6.04 0.281,-2.196 0.511,-3.034 1.526,-5.564 0.543,-1.355 1.598,-2.074 3.643,-2.483 2.388,-0.478 4.568,-1.29 5.41,-2.014 l 0.64,-0.55 2.036,1.074 c 1.142,0.602 2.767,1.226 3.7,1.42 1.01,0.21 1.76,0.507 1.909,0.757 0.135,0.227 0.502,0.727 0.816,1.112 0.38,0.466 0.687,1.356 0.92,2.664 0.191,1.08 0.511,2.875 0.711,3.987 0.459,2.553 0.46,3.365 0.013,4.797 -0.198,0.632 -0.537,1.785 -0.754,2.563 -0.59,2.111 -0.799,2.177 -8.572,2.711 -0.809,0.056 -2.313,0.012 -3.343,-0.097 z m 10.525,-9.416 c 0.52,-0.438 0.761,-0.9 0.862,-1.655 0.076,-0.577 0.216,-1.303 0.31,-1.614 0.135,-0.45 0.062,-0.595 -0.353,-0.703 -0.351,-0.092 -0.522,-0.33 -0.522,-0.729 0,-0.326 -0.166,-0.644 -0.368,-0.707 -0.712,-0.222 -0.986,-0.357 -1.523,-0.748 -0.51,-0.37 -0.575,-0.36 -1.103,0.194 -0.309,0.323 -1.02,0.721 -1.581,0.884 -0.612,0.179 -1.322,0.642 -1.778,1.16 -0.641,0.731 -0.758,1.062 -0.758,2.15 0,0.766 0.154,1.505 0.382,1.83 0.354,0.506 0.57,0.545 3.046,0.545 2.478,0 2.715,-0.042 3.386,-0.607 z m -16.127,-0.706 c 0.007,-0.928 1.306,-3.173 2.106,-3.64 0.635,-0.371 0.89,-0.397 1.59,-0.162 1.576,0.53 2.165,1.33 2.4,3.259 0.128,1.047 0.24,1.256 0.704,1.321 0.49,0.07 0.551,-0.026 0.55,-0.858 -0.004,-2.444 -1.21,-4.25 -3.243,-4.853 -1.144,-0.34 -1.313,-0.333 -2.274,0.092 -0.571,0.252 -1.108,0.572 -1.193,0.709 -0.085,0.138 -0.376,0.192 -0.646,0.121 -0.717,-0.187 -1.212,0.337 -1.106,1.174 0.06,0.472 -0.018,0.717 -0.228,0.717 -0.447,0 -0.67,1.353 -0.34,2.075 0.445,0.977 1.672,1.01 1.68,0.045 z m 20.784,-3.513 c -0.256,-0.067 -0.487,-0.464 -0.59,-1.014 a 10.27,10.27 0 0 0 -0.506,-1.71 c -0.405,-0.969 -0.311,-1.169 0.635,-1.358 0.794,-0.159 1.665,-0.954 2.01,-1.836 l 0.221,-0.569 1.716,0.927 c 2.006,1.083 2.089,1.36 0.956,3.166 -1.296,2.068 -1.89,2.565 -3.025,2.533 -0.548,-0.016 -1.185,-0.078 -1.417,-0.139 z m -3.514,-4.895 c -1.23,-1.328 -0.577,-3.635 1.246,-4.397 1.11,-0.464 2.447,-0.065 2.934,0.877 0.775,1.498 0.293,2.692 -1.434,3.553 -1.562,0.778 -1.999,0.773 -2.746,-0.033 z m -2.808,-2.36 c -2.041,-0.656 -3.144,-1.183 -3.293,-1.572 -0.344,-0.896 1.964,-3.67 3.879,-4.6620003 0.978,-0.508 1.63,-0.16 2.71,1.4430003 0.94,1.397 1.08,1.915 0.513,1.915 -0.574,0 -2.014,1.598 -2.247,2.492 l -0.213,0.818 z"
     style="fill:#ffffff;fill-opacity:1;stroke-width:0.245195"
     id="path12" />
  <path
     d="M52.916 37.173v1.191a14.52 14.52 0 0 1-14.552 14.552H14.552A14.52 14.52 0 0 1 0 38.364v-1.19z"
     style="display:inline;fill:#000;stroke-width:0.5;stroke-linejoin:round;stroke-opacity:0.909449"
     id="path6" />
  <g
     aria-label="Sincerity"
     id="text2177"
     style="font-weight:bold;font-size:8.8195px;font-family:Andika;-inkscape-font-specification:'Andika Bold';text-align:center;text-anchor:middle;opacity:0.99;fill:#417cb1;stroke-width:0.264585">
    <path
       d="m 11.79472,41.384079 -0.193788,1.141195 q -0.508155,-0.254077 -0.887118,-0.374656 -0.378963,-0.120579 -0.8354408,-0.120579 -0.4004949,0 -0.6631851,0.223932 -0.2583838,0.219627 -0.2583838,0.486623 0,0.185175 0.099047,0.32298 0.099047,0.137805 0.3875757,0.271303 0.2885286,0.133498 0.8526669,0.31006 0.861279,0.266997 1.313451,0.689024 0.456478,0.41772 0.456478,1.098131 0,0.615815 -0.314367,1.080906 -0.314367,0.46509 -0.839748,0.727781 -0.52538,0.258383 -1.1627267,0.258383 -0.6761043,0 -1.2574678,-0.163643 Q 7.91035,47.171876 7.5529191,46.917799 L 7.7682389,45.73354 q 0.4607844,0.37035 0.9603264,0.542606 0.499542,0.167949 1.020616,0.167949 0.2799157,0 0.5253807,-0.09905 0.249771,-0.103353 0.400495,-0.297141 0.15503,-0.193788 0.15503,-0.465091 0,-0.180869 -0.10766,-0.335899 Q 10.614767,45.091887 10.3004,44.93255 9.9860331,44.768907 9.3616056,44.570813 8.6855013,44.355493 8.3323768,44.097109 7.9792523,43.838725 7.8500604,43.524358 7.7251749,43.209991 7.7251749,42.826722 q 0,-0.288528 0.1248855,-0.607202 0.1248855,-0.318673 0.3918821,-0.594282 0.2669966,-0.279916 0.6804106,-0.452172 0.4177205,-0.176562 0.999084,-0.176562 0.5512189,0 0.9818589,0.09474 0.430639,0.09043 0.891424,0.292835 z"
       id="path2378" />
    <path
       d="m 13.22875,42.998978 h 1.270387 q 0,0.32298 0,0.689023 0,0.366044 0,0.710556 0,0.340205 0,0.594283 0,0.254077 0,0.353124 0,0.275609 0.0086,0.671798 0.01292,0.391882 0.03014,0.766538 0.02153,0.374657 0.04737,0.607202 h -1.291919 q 0,-0.31006 0,-0.727781 0,-0.41772 0,-0.831134 0,-0.417721 0,-0.723475 0,-0.628734 -0.01292,-1.197178 -0.0086,-0.572751 -0.05168,-0.912956 z m -0.08613,-1.571835 q 0,-0.331592 0.211013,-0.542606 0.21532,-0.211013 0.542606,-0.211013 0.331593,0 0.542606,0.211013 0.211014,0.211014 0.211014,0.542606 0,0.335899 -0.211014,0.546913 -0.211013,0.206707 -0.542606,0.206707 -0.327286,0 -0.542606,-0.206707 -0.211013,-0.211014 -0.211013,-0.546913 z"
       id="path2380" />
    <path
       d="m 20.097452,47.391502 h -1.205791 q 0,0 0,-0.185175 0,-0.185175 0,-0.47801 0,-0.292835 0,-0.620121 0,-0.327286 0,-0.615814 0,-0.292835 0,-0.469398 0,-0.594282 -0.163643,-0.822521 -0.159336,-0.232546 -0.503848,-0.232546 -0.245465,0 -0.473704,0.142111 -0.228239,0.137805 -0.400495,0.348818 -0.167949,0.211014 -0.245464,0.434946 v 2.49771 h -1.205791 q 0,0 0,-0.189481 0,-0.193788 0,-0.499542 0,-0.305754 0,-0.663185 0,-0.361737 0,-0.701943 0,-0.344511 0,-0.594282 0,-0.633041 -0.07321,-1.0766 -0.0689,-0.443558 -0.142111,-0.667491 h 1.184259 q 0.03445,0.08613 0.0646,0.236852 0.03445,0.150724 0.0646,0.305754 0.03015,0.15503 0.04306,0.254077 0.409107,-0.469397 0.805296,-0.676104 0.396188,-0.206707 0.852666,-0.206707 0.654573,0 1.024923,0.452172 0.374656,0.447865 0.374656,1.334983 0,0.215319 0,0.551218 0,0.331593 0,0.701943 0,0.37035 0,0.697636 0,0.327286 0,0.533993 0,0.206707 0,0.206707 z"
       id="path2382" />
    <path
       d="m 24.606249,43.218604 -0.189481,1.042148 q -0.223933,-0.2024 -0.490929,-0.301448 -0.266997,-0.09905 -0.633041,-0.09905 -0.482316,0 -0.775151,0.374657 -0.288528,0.374656 -0.288528,1.00339 0,0.568444 0.271302,0.930182 0.27561,0.361737 0.792377,0.361737 0.387576,0 0.667492,-0.124885 0.279916,-0.124886 0.559831,-0.348819 l 0.129192,1.033536 q -0.292835,0.198094 -0.667491,0.301447 -0.374657,0.10766 -0.856973,0.10766 -0.577057,0 -1.055067,-0.258383 -0.47801,-0.258384 -0.762232,-0.75362 -0.284222,-0.499542 -0.284222,-1.205791 0,-0.671798 0.275609,-1.205791 0.279916,-0.538299 0.783764,-0.84836 0.508155,-0.314367 1.188565,-0.314367 0.426334,0 0.762233,0.09043 0.335899,0.09043 0.57275,0.21532 z"
       id="path2384" />
    <path
       d="m 29.38635,45.453624 h -3.307313 v -0.775151 h 2.209182 q 0,-0.452172 -0.198095,-0.654573 -0.193788,-0.206707 -0.577057,-0.206707 -0.465091,0 -0.69333,0.32298 -0.223932,0.318673 -0.223932,1.076599 0,0.684717 0.275609,0.999084 0.275609,0.314367 0.809603,0.314367 0.422026,0 0.826828,-0.09905 0.409107,-0.09905 0.809602,-0.335899 l 0.09043,0.973246 q -0.465091,0.236851 -0.900037,0.331592 -0.43064,0.09905 -0.934488,0.09905 -0.568445,0 -1.059374,-0.254077 -0.490929,-0.254077 -0.792377,-0.753619 -0.297141,-0.499542 -0.297141,-1.23163 0,-0.714862 0.258384,-1.240242 0.26269,-0.52538 0.745006,-0.813909 0.482317,-0.292835 1.145502,-0.292835 0.542606,0 0.891424,0.189481 0.353124,0.185176 0.551219,0.499542 0.2024,0.314367 0.284222,0.70625 0.08182,0.387575 0.08182,0.792376 0,0.06029 0,0.176563 0.0043,0.116272 0.0043,0.176562 z"
       id="path2386" />
    <path
       d="m 31.647208,47.391502 h -1.205791 v -2.648433 q 0,-0.633041 -0.07321,-1.0766 -0.0689,-0.443558 -0.142111,-0.667491 h 1.184259 q 0.03445,0.09043 0.0646,0.249771 0.03445,0.159337 0.0646,0.32298 0.03014,0.163643 0.04306,0.266996 0.314367,-0.447865 0.689023,-0.684717 0.374657,-0.241158 0.667491,-0.241158 0.404802,0 0.650266,0.223933 0.245465,0.219626 0.357431,0.58567 0.111967,0.366043 0.111967,0.805296 l -0.960327,0.150724 q -0.02153,-0.292835 -0.142111,-0.469398 -0.120579,-0.180868 -0.396188,-0.180868 -0.142111,0 -0.327287,0.159336 -0.185175,0.159337 -0.348818,0.409108 -0.159336,0.245465 -0.236851,0.512461 z"
       id="path2388" />
    <path
       d="m 34.812409,42.998978 h 1.270387 q 0,0.32298 0,0.689023 0,0.366044 0,0.710556 0,0.340205 0,0.594283 0,0.254077 0,0.353124 0,0.275609 0.0086,0.671798 0.01292,0.391882 0.03014,0.766538 0.02153,0.374657 0.04737,0.607202 h -1.291919 q 0,-0.31006 0,-0.727781 0,-0.41772 0,-0.831134 0,-0.417721 0,-0.723475 0,-0.628734 -0.01292,-1.197178 -0.0086,-0.572751 -0.05168,-0.912956 z m -0.08613,-1.571835 q 0,-0.331592 0.211013,-0.542606 0.21532,-0.211013 0.542606,-0.211013 0.331593,0 0.542606,0.211013 0.211014,0.211014 0.211014,0.542606 0,0.335899 -0.211014,0.546913 -0.211013,0.206707 -0.542606,0.206707 -0.327286,0 -0.542606,-0.206707 -0.211013,-0.211014 -0.211013,-0.546913 z"
       id="path2390" />
    <path
       d="m 40.389193,46.181405 v 0.964633 q -0.305755,0.193788 -0.589977,0.271303 -0.284222,0.08182 -0.516767,0.08182 -0.404802,0 -0.740701,-0.10766 -0.335898,-0.111966 -0.538299,-0.387575 -0.198094,-0.279916 -0.198094,-0.775152 0,-1.132582 0,-2.260858 0,-1.132582 0,-2.260858 h 1.205791 q 0,0.921569 0,1.847444 0,0.921569 0,1.847444 0,0.486623 0.05598,0.723475 0.05598,0.236852 0.176562,0.31006 0.120579,0.0689 0.314367,0.0689 0.310061,0 0.831135,-0.32298 z m -0.0646,-2.256552 h -3.337458 v -0.861279 h 3.337458 z"
       id="path2392" />
    <path
       d="M 43.257253,46.487159 42.688808,47.744627 41.44426,44.527749 Q 41.327987,44.230607 41.164344,43.86887 41.005007,43.502826 40.755236,42.998978 h 1.347903 z m 1.4814,-1.95941 -1.033535,2.863753 q -0.301448,0.831135 -0.611508,1.266081 -0.305754,0.439252 -0.641653,0.598589 -0.335899,0.159337 -0.727781,0.159337 -0.602896,0 -1.098131,-0.366044 l 0.301447,-0.938794 q 0.137805,0.111966 0.361738,0.215319 0.223932,0.10766 0.434946,0.10766 0.133498,0 0.266996,-0.07321 0.137805,-0.07321 0.284222,-0.284223 0.146418,-0.206707 0.310061,-0.611508 0.0646,-0.15503 0.163643,-0.387576 0.103354,-0.236851 0.206707,-0.482316 0.10766,-0.245465 0.172256,-0.439252 0.180869,-0.624428 0.348818,-1.223017 0.167949,-0.598589 0.305754,-1.098131 0.142111,-0.503848 0.232546,-0.835441 h 1.347902 q -0.223933,0.499542 -0.37035,0.865586 -0.146418,0.361737 -0.254078,0.663185 z"
       id="path2394" />
  </g>
</svg>
