<svg xmlns="http://www.w3.org/2000/svg" width="200" height="200" viewBox="0 0 52.917 52.917"><defs><clipPath id="a" clipPathUnits="userSpaceOnUse"><path d="M15.742 2.645h21.432c7.24-.016 13.112 5.857 13.096 13.097v9.128c0 6.553-.73 12.304-11.906 12.304H14.55c-12.082 0-11.906-6.917-11.906-12.304v-9.128C2.629 8.502 8.502 2.629 15.742 2.645Z" style="display:inline;fill:#141414;fill-opacity:1;stroke-width:.450004;stroke-linejoin:round;stroke-opacity:.909449"/></clipPath></defs><rect width="52.917" height="52.917" y="-.001" rx="14.552" ry="14.552" style="display:inline;fill:#000;fill-opacity:1;fill-rule:nonzero;stroke:none;stroke-width:.5;stroke-linecap:butt;stroke-linejoin:round;stroke-miterlimit:4;stroke-dasharray:none;stroke-dashoffset:0;stroke-opacity:.909449;paint-order:normal"/><path d="M15.742 2.645h21.432c7.24-.016 13.112 5.857 13.096 13.097v9.128c0 6.553-.73 12.304-11.906 12.304H14.55c-12.082 0-11.906-6.917-11.906-12.304v-9.128C2.629 8.502 8.502 2.629 15.742 2.645Z" style="display:inline;fill:#141414;stroke-width:.450003;stroke-linejoin:round;stroke-opacity:.909449;fill-opacity:1"/><path d="M52.916 37.173v1.191a14.52 14.52 0 0 1-14.552 14.552H14.552A14.52 14.52 0 0 1 0 38.364v-1.19z" style="display:inline;fill:#000;stroke-width:.5;stroke-linejoin:round;stroke-opacity:.909449"/><path d="M50.27 15.742v9.128H2.645v-9.128Z" style="display:inline;fill:#7d0707;stroke-width:.450003;stroke-linejoin:round;stroke-opacity:.909449;fill-opacity:1"/><path d="M21.827 39.738c-.845-.185-2.095-.62-2.778-.966-1.507-.763-4.29-3.516-4.94-4.884-1.438-3.032-1.581-8.388-.32-11.987l.314-.897 2.778.166c1.528.091 4.802.295 7.276.454 3.244.207 5.884.207 9.471-.001 2.735-.159 5.111-.317 5.28-.351.803-.163 2.549 7.253 2.192 9.312-.556 3.214-2.174 6.2-3.995 7.375-2.812 1.814-10.843 2.748-15.278 1.778zM18.84 29.269c1.296-.455 3.131-.99 4.078-1.188.946-.198 1.91-.553 2.141-.788.385-.392.365-.475-.24-.972-.626-.514-.895-.536-4.895-.393-5.13.182-5.596.277-5.766 1.167-.285 1.493.8 3.4 1.79 3.142.295-.077 1.596-.512 2.892-.968zm19.995-.188c.875-1.752.91-2.15.203-2.297-1.621-.336-4.298-.667-6.688-.827-2.18-.145-2.713-.107-2.98.216-.596.718-.042 1.192 2.412 2.066 1.336.475 3.144 1.13 4.017 1.456.873.325 1.772.603 1.998.617.238.015.673-.5 1.038-1.23zm-12.297-8.153c-.29-.042-3.03-.21-6.085-.375-3.056-.164-6.033-.422-6.615-.573-1.524-.397-2.249-1.162-2.249-2.373 0-1.46.837-2.288 2.778-2.748 2.206-.524 2.128-.56 2.024.952-.052.742.027 1.47.175 1.618.937.937 15.337 1.403 18.434.596 2.058-.536 2.322-.783 2.2-2.058l-.098-1.038 1.538.16c1.909.2 2.982.737 3.51 1.757.833 1.612-.326 2.808-3.31 3.416-2.318.473-10.566.92-12.302.666zm-6.433-3.68c-1.356-.183-2.58-.448-2.722-.59-.145-.145-.181-.766-.082-1.424.148-.988.45-1.44 1.953-2.93 1.132-1.121 2.49-2.13 3.738-2.776 1.868-.967 2.075-1.014 4.472-1.015 2.316 0 2.642.067 4.143.85 2.295 1.197 3.996 3.386 4.551 5.858.296 1.316.154 1.462-1.951 2.01-1.941.506-10.414.516-14.102.018z" clip-path="url(#a)" style="fill:#fff;stroke-width:.264585"/><path d="M10.011 40.728h5.667v1.206q-.26-.063-.54-.078-.275-.019-.57-.019h-1.046v3.94q0 .676.015 1.197.019.52.082.796H12.05q.063-.275.077-.796.02-.521.02-1.196v-3.94H11.12q-.29 0-.569.018-.28.015-.54.078zm7.934 4.244v2.798h-1.35v-5.451q0-.776-.01-1.365-.01-.593-.063-.901h1.423v3.617q.357-.458.859-.685.506-.231 1.022-.231 1.471 0 1.471 2.001v3.015h-1.35v-2.653q0-.704-.184-.94-.178-.242-.564-.242-.275 0-.53.16-.256.154-.449.39-.188.236-.275.487zm8.827.628h-3.705v-.869h2.475q0-.506-.222-.733-.217-.232-.647-.232-.52 0-.776.362-.25.357-.25 1.206 0 .767.308 1.119t.907.352q.472 0 .926-.111.458-.11.906-.376l.102 1.09q-.521.265-1.008.371-.483.111-1.047.111-.637 0-1.187-.284-.55-.285-.887-.844-.333-.56-.333-1.38 0-.8.29-1.389.294-.588.834-.912.54-.327 1.283-.327.608 0 .998.212.396.207.618.56.226.351.318.79.092.434.092.888v.197q.004.13.004.198zm.916-.276q0-.83.328-1.403.333-.574.883-.868.55-.3 1.2-.3.685 0 1.206.3.521.294.815.868.295.574.295 1.403 0 .83-.333 1.404-.328.569-.878.868-.55.294-1.201.294-.68 0-1.2-.294-.522-.3-.82-.868-.295-.574-.295-1.404zm1.35 0q0 .69.256 1.085.26.396.757.396.468 0 .738-.396.275-.395.275-1.085 0-.694-.26-1.09-.256-.395-.753-.395-.468 0-.743.395-.27.396-.27 1.09zm5.861 2.446h-1.35v-2.967q0-.709-.083-1.205-.077-.497-.16-.748h1.327q.039.101.073.28.038.178.072.361.034.184.048.3.352-.502.772-.767.42-.27.747-.27.454 0 .729.25.275.246.4.656.126.41.126.902l-1.076.169q-.024-.328-.16-.526-.134-.202-.443-.202-.16 0-.367.178-.207.179-.39.458-.179.275-.265.574zm5.647-1.013-.636 1.408-1.394-3.603q-.13-.333-.314-.738-.178-.41-.458-.974h1.51zm1.66-2.195-1.158 3.208q-.338.93-.685 1.418-.342.492-.718.67-.377.178-.816.178-.675 0-1.23-.41l.338-1.05q.154.124.405.24.251.12.487.12.15 0 .3-.081.154-.082.318-.319.164-.231.347-.684.072-.174.183-.434.116-.266.232-.54.12-.276.193-.493.202-.699.39-1.37.189-.67.343-1.23.16-.564.26-.935h1.51q-.25.56-.415.97-.164.405-.284.742z" aria-label="Theory" style="font-weight:700;font-size:9.87784px;font-family:Andika;-inkscape-font-specification:&quot;Andika Bold&quot;;text-align:center;text-anchor:middle;opacity:.99;fill:#7d0707;stroke-width:.264585"/></svg>