<svg xmlns="http://www.w3.org/2000/svg" width="200" height="200" viewBox="0 0 52.917 52.917"><rect width="52.917" height="52.917" y="-.001" rx="14.552" ry="14.552" style="display:inline;fill:#000;fill-opacity:1;fill-rule:nonzero;stroke:none;stroke-width:.5;stroke-linecap:butt;stroke-linejoin:round;stroke-miterlimit:4;stroke-dasharray:none;stroke-dashoffset:0;stroke-opacity:.909449;paint-order:normal"/><path d="M15.742 2.645h21.432c7.24-.016 13.112 5.857 13.096 13.097v9.128c0 6.553-.73 12.304-11.906 12.304H14.55c-12.082 0-11.906-6.917-11.906-12.304v-9.128C2.629 8.502 8.502 2.629 15.742 2.645Z" style="display:inline;fill:#fff700;stroke-width:.450003;stroke-linejoin:round;stroke-opacity:.909449;fill-opacity:1"/><path d="M52.916 37.173v1.191a14.52 14.52 0 0 1-14.552 14.552H14.552A14.52 14.52 0 0 1 0 38.364v-1.19z" style="display:inline;fill:#000;stroke-width:.5;stroke-linejoin:round;stroke-opacity:.909449"/><path d="M25.202 40.31c-.33-.105-1.29-.32-2.134-.478-.844-.158-2.297-.59-3.23-.96-1.674-.665-1.685-.675-.916-.844.429-.095 1.694-.095 2.811-.002 1.497.124 2.128.09 2.398-.135.282-.234.504-.24.97-.028.749.341 2.082.358 2.41.03.167-.168.545-.12 1.187.149.727.304 1.427.367 3.06.274 1.876-.106 2.233-.203 3.119-.845.937-.678 1-.798 1-1.888V34.42l-1.2.024c-.659.013-1.434.104-1.721.203-.462.159-.532.085-.6-.623-.065-.68-.188-.824-.797-.934-.965-.174-3.316-1.328-3.77-1.85-.2-.23-.434-.715-.52-1.078-.086-.363-.263-.66-.392-.66-.13 0-.235-.418-.235-.93 0-.511-.135-1.03-.3-1.154-.165-.124-1.164-.472-2.22-.774-1.055-.302-2.651-.926-3.547-1.386-.896-.46-1.76-.786-1.919-.724-.413.162-1.61 2.626-1.61 3.315 0 .317.099.92.22 1.341.192.671.147.81-.37 1.15-.324.212-.773.773-.999 1.248l-.41.862-.12-.694c-.073-.415-.338-.79-.66-.931-.695-.305-.881-1.308-.708-3.81.134-1.94.215-2.262 1.3-5.135.313-.829.516-1.59.452-1.694-.064-.104.525-.321 1.309-.483 1.01-.209 1.426-.404 1.426-.671 0-.297-.139-.336-.66-.184-.363.106-1.622.198-2.798.206-2.497.016-2.693.202-1.593 1.517 1.215 1.452 1.221 1.461.989 1.605-.12.074-.29.458-.377.852-.18.819-.184.82-.89.417-1.175-.672-1.514-1.123-1.209-1.611.245-.393.18-.546-.455-1.081-.408-.343-1.052-.784-1.432-.98-.464-.24-.691-.543-.691-.922 0-.784.371-1.02 2.098-1.332.825-.15 1.945-.429 2.49-.621 1.417-.5 2.109-.44 2.637.232.863 1.097 2.17 1.358 10.327 2.065 4.371.378 8.173.01 10.224-.99 1.495-.73 1.531-.735 4.158-.564 1.869.12 2.685.266 2.773.493.068.178-.31.972-.84 1.765-.53.794-.865 1.504-.743 1.58.398.246.23.764-.5 1.546-.396.424-.723.948-.727 1.165-.004.217-.264-.128-.577-.768l-.57-1.162.578-.85c.657-.97.699-1.244.274-1.825-.258-.353-.417-.373-1.1-.135-.476.166-1.32.217-2.096.126-.787-.093-1.3-.061-1.3.08 0 .311.81.73 1.408.73.357 0 .725.483 1.444 1.894 2.599 5.101 2.793 7.878.831 11.925-.909 1.875-2.85 4.218-3.977 4.8-1.631.845-5.195 1.533-7.832 1.513-1.401-.01-2.818-.104-3.148-.209zm11.25-8.35c1.933-1.195 2.405-2.33 2.073-4.986-.217-1.74-1.008-2.747-1.843-2.346-.31.15-1.05.432-1.644.627-3.29 1.08-5.215 1.993-5.396 2.56-.083.265.055.928.314 1.5 1.218 2.698 4.35 3.972 6.496 2.645zm-7.725 5.095-1.394-.615-.419.518-.42.518-.996-.509c-1.018-.52-2.018-.4-1.77.002.272.44-.515.247-4.647.336-3.616.078-4.445.025-6.05-.392-2.199-.57-2.922-1.168-3.11-2.571-.232-1.729 1.087-2.92 3.231-2.92 1.127 0 1.495.336 1.495 1.367 0 .435.103.791.229.791.606 0 1.448-.613 1.71-1.245.415-1.004 1.825-2.038 2.338-1.714.281.177.617.156 1.168-.074.528-.22 1.632-.305 3.481-.264 2.631.057 3.277.238 2.82.79-.147.176.033.453.536.825 1.127.834 3.358 1.916 3.956 1.92.728.004.919.426.434.962-.389.43-.37.456.458.611.476.09 1.215.093 1.643.008 1.52-.301 1.737-.278 1.737.185 0 .244-.434.758-.965 1.143-1.434 1.038-3.566 1.167-5.465.329zM27.12 18.452c-7.787-.722-8.964-.97-9.835-2.078-.571-.726-.623-1.807-.112-2.318.402-.402 1.835-.862 2.69-.865.298 0 .54-.038.54-.083 0-.046-.226-.72-.503-1.5-.615-1.729-.719-3.93-.213-4.539.575-.693 1.654-1.022 4.325-1.32 2.674-.297 4.897-.181 7.435.388 3.585.804 4.69 2.522 3.809 5.916-.561 2.161-.57 2.017.122 2.19 1.023.257 2.057 1.313 2.057 2.1 0 1.077-1.742 1.79-5.157 2.114-1.451.138-2.747.235-2.879.217-.132-.019-1.157-.119-2.279-.222z" style="fill:#000;stroke-width:.239884"/><path d="M10.974 42.534h1.136q-.037.227-.049.644-.007.417-.007 1.004v1.933q0 .925-.539 1.486-.538.56-1.603.56-1.076 0-1.618-.56-.542-.561-.542-1.486v-1.933q0-.56-.007-.989-.008-.432-.05-.66h1.137v3.412q0 .409.095.712t.33.47q.235.167.655.167.414 0 .64-.167.232-.167.327-.47.095-.303.095-.712zm6.044 5.533h-1.061v-2.085q0-.523-.144-.723-.14-.205-.443-.205-.216 0-.417.125-.201.121-.353.307-.148.186-.216.383v2.198h-1.06v-2.331q0-.557-.065-.947-.06-.39-.125-.588h1.042q.03.076.057.209.03.132.057.269.026.136.037.223.36-.413.71-.595.348-.181.75-.181.575 0 .901.397.33.395.33 1.175v2.369zm1.345 0v-4.434q0-.853.398-1.277.398-.428 1.1-.428.211 0 .477.08.265.075.432.185l-.254.826q-.114-.099-.277-.152-.159-.056-.292-.056-.272 0-.397.2-.126.201-.126.664v2.52q0 .55.027 1.06.027.512.087.812zm-.758-3.809h4.46v2.009q0 .242.008.59.012.346.027.675.019.33.042.535h-1.137v-3.05h-3.4zm3.305-1.398q0-.262.182-.444.186-.181.443-.181.262 0 .444.181.182.182.182.444 0 .265-.182.447-.182.178-.444.178-.257 0-.443-.178-.182-.182-.182-.447zm3.581-.857v4.264q0 .242.008.587.011.345.026.675.02.33.042.538H23.43v-4.283q0-1.11-.076-1.78zm3.789 4.999v.849q-.268.17-.518.238-.25.072-.455.072-.356 0-.652-.094-.296-.099-.474-.341-.174-.247-.174-.682v-3.98h1.061v3.252q0 .428.05.637.049.208.155.272.106.061.276.061.273 0 .732-.284zm-.056-1.986h-2.937v-.758h2.937zm4.131 1.345h-2.91v-.682h1.943q0-.398-.174-.576-.17-.182-.508-.182-.41 0-.61.285-.197.28-.197.947 0 .603.243.88.242.276.712.276.371 0 .728-.087.36-.088.712-.296l.08.857q-.41.208-.792.291-.38.087-.823.087-.5 0-.932-.223-.432-.224-.697-.663-.262-.44-.262-1.084 0-.63.228-1.092.23-.462.655-.716.425-.257 1.008-.257.478 0 .785.166.31.163.485.44.178.277.25.621.072.341.072.698v.155q.004.102.004.155zm1.989 1.706h-1.06v-2.33q0-.558-.065-.948-.06-.39-.125-.588h1.042q.03.08.057.22.03.14.056.284.027.144.038.235.277-.394.607-.602.33-.212.587-.212.356 0 .572.197.216.193.315.515.098.322.098.709l-.845.132q-.019-.257-.125-.413-.106-.159-.348-.159-.125 0-.288.14-.163.14-.307.36-.14.216-.209.451zm5.988-1.706h-2.91v-.682h1.943q0-.398-.174-.576-.17-.182-.508-.182-.409 0-.61.285-.197.28-.197.947 0 .603.243.88.242.276.712.276.372 0 .728-.087.36-.088.712-.296l.08.857q-.41.208-.792.291-.38.087-.823.087-.5 0-.932-.223-.432-.224-.697-.663-.262-.44-.262-1.084 0-.63.228-1.092.23-.462.655-.716.425-.257 1.008-.257.478 0 .785.166.31.163.485.44.178.277.25.621.072.341.072.698v.155q.004.102.004.155zm4.604-4.358v4.055q0 .716.08 1.205.083.485.204.804h-1.042q-.041-.091-.102-.277-.057-.19-.106-.386-.254.363-.584.56-.33.197-.724.197-.466 0-.822-.227-.352-.227-.553-.64-.197-.417-.197-.97 0-.671.25-1.164.25-.493.67-.762.425-.272.937-.272.223 0 .473.098.25.099.455.224v-1.061q0-.455-.023-.8-.019-.345-.072-.584zm-1.06 4.548V45.27q-.262-.129-.463-.182-.201-.053-.466-.053-.197 0-.383.14-.182.14-.3.402-.113.261-.113.633 0 1.099.72 1.099.2 0 .398-.11.197-.11.356-.284.16-.175.25-.364z" aria-label="Unfiltered" style="font-weight:700;font-size:7.76116px;font-family:Andika;-inkscape-font-specification:&quot;Andika Bold&quot;;text-align:center;text-anchor:middle;opacity:.99;fill:#fff700;stroke-width:.264585"/></svg>