<svg xmlns="http://www.w3.org/2000/svg" width="200" height="200" viewBox="0 0 52.917 52.917"><rect width="52.917" height="52.917" y="-.001" rx="14.552" ry="14.552" style="display:inline;fill:#000;fill-opacity:1;fill-rule:nonzero;stroke:none;stroke-width:.5;stroke-linecap:butt;stroke-linejoin:round;stroke-miterlimit:4;stroke-dasharray:none;stroke-dashoffset:0;stroke-opacity:.909449;paint-order:normal"/><path d="M15.742 2.645h21.432c7.24-.016 13.112 5.857 13.096 13.097v9.128c0 6.553-.73 12.304-11.906 12.304H14.55c-12.082 0-11.906-6.917-11.906-12.304v-9.128C2.629 8.502 8.502 2.629 15.742 2.645Z" style="display:inline;fill:#d0291d;stroke-width:.450003;stroke-linejoin:round;stroke-opacity:.909449;fill-opacity:1"/><path d="M52.916 37.173v1.191a14.52 14.52 0 0 1-14.552 14.552H14.552A14.52 14.52 0 0 1 0 38.364v-1.19z" style="display:inline;fill:#000;stroke-width:.5;stroke-linejoin:round;stroke-opacity:.909449"/><path d="M15.742 2.645h21.432v34.529H15.742Z" style="display:inline;fill:#fc8028;fill-opacity:1;stroke-width:.450003;stroke-linejoin:round;stroke-opacity:.909449"/><path d="M12.978 39.41c-1.769-.543-3.238-1.57-4.157-2.905-.425-.618-.772-1.221-.77-1.34 0-.12.422-.504.936-.854s1.287-1.081 1.718-1.625c.76-.961.813-.982 1.832-.723 1.421.36 4.042-.12 5.339-.978 1.264-.836 1.838-1.933 1.997-3.82.104-1.218.008-1.706-.543-2.776l-.668-1.298.892-1.043c1.91-2.232 3.457-6.353 3.766-10.033.1-1.192.264-1.806.483-1.806.183 0 1.336.42 2.563.934 3.934 1.647 7.48 5 9.226 8.723.916 1.953 1.825 5.949 1.825 8.02 0 2.928-1.703 7.097-3.55 8.69-1.868 1.61-2.044 1.67-7.96 2.738-3.671.663-10.91.716-12.93.096zm16.884-9.646c4.544-.353 4.766-.482 4.572-2.64-.146-1.626-.931-3.413-2.007-4.57-1.403-1.509-3.008-1.88-4.614-1.07-2.476 1.252-3.298 3.132-2.944 6.731.16 1.622.245 1.838.727 1.838.3 0 2.22-.13 4.266-.29zm9.497 7.55c-.099-.258.157-.721.68-1.233.582-.569.755-.905.564-1.096-.378-.378-.347-1.424.045-1.555.25-.083.246-.358-.017-1.237-.305-1.018-.291-1.165.142-1.483.455-.334.44-.396-.281-1.15-.738-.773-.814-1.624-.144-1.624.465 0 .034-1.388-.578-1.863-.631-.489-.424-1.312.33-1.312.28 0 .584-.208.676-.463.092-.254.397-.795.679-1.2.48-.693.485-.793.089-1.628-.232-.49-.422-1.092-.422-1.339 0-1.528 2.213-3.731 3.05-3.036.214.177.39.476.39.662 0 .213.203.287.544.198.4-.105.584.007.692.421.096.366.358.564.746.564 1.44 0 1.522 2.093.135 3.48-.65.649-.96.754-2.234.754-1.385 0-1.513.055-2.003.86-.68 1.115-.671 1.161.267 1.349 1.056.211 1.024.89-.066 1.369-.834.365-.841.382-.24.553.642.183.64.147.134 2.135-.122.476-.055.554.38.44 1.009-.264 1.094 1.215.125 2.184-.331.33-.368.49-.132.57.48.16.401.958-.165 1.683-.27.347-.574.893-.675 1.213-.251.802-1.597 2.196-2.121 2.196a.686.686 0 0 1-.59-.413zM6.696 31.838c-.556-1.687-.63-2.398-.622-5.887.014-5.41.546-7.305 2.994-10.66 2.299-3.15 6.952-5.333 11.388-5.344l1.692-.003-.151 1.805c-.202 2.412-.844 4.799-1.84 6.84-1.04 2.132-2.518 3.909-2.953 3.548-.173-.143-.877-.386-1.565-.54-2.513-.564-5.23.89-6.146 3.287-.622 1.628-.445 4.336.353 5.415l.582.788-1.335 1.334c-.734.735-1.431 1.335-1.55 1.335-.118 0-.5-.863-.847-1.918zm4.777-1.722c-.82-.732-.898-.94-.99-2.613-.085-1.563-.013-1.946.52-2.743.845-1.265 2.776-2.207 4.04-1.97 2.054.386 3.588 2.132 3.588 4.087 0 2.274-1.637 3.663-4.599 3.9-1.57.127-1.72.087-2.559-.661zm4.327-1.738c.965-2.11 1.324-3.38 1.038-3.665-.509-.51-1.05-.024-1.507 1.351-.245.738-.535 1.342-.645 1.342-.109 0-.584-.595-1.056-1.323-.54-.834-1.045-1.323-1.367-1.323-.764 0-.628.695.458 2.33 1.76 2.652 2.344 2.896 3.079 1.288z" style="fill:#000;stroke-width:.264585"/><path d="m10.731 48.029-.076-.493 1.137-5.04h1.175q-.091.231-.186.53-.095.3-.25.853l-1.175 4.15zm-1.175-5.533 1.327 5.04-.076.493h-.644l-1.308-4.946-.284-.587Zm-2.198 5.533-.076-.493 1.289-5.04h.985l-.284.587-1.288 4.946zm-.985-5.533 1.137 5.04-.076.493H6.79l-1.156-4.15q-.152-.542-.25-.849-.099-.31-.186-.534Zm8.375 3.334v2.199h-1.061v-4.282q0-.61-.008-1.073-.007-.466-.049-.709h1.118v2.843q.28-.36.675-.538.397-.182.803-.182 1.156 0 1.156 1.572v2.37H16.32v-2.084q0-.554-.144-.74-.14-.189-.444-.189-.216 0-.417.125-.2.121-.352.307-.148.186-.216.383zm3.449.278q0-.652.257-1.103.262-.451.694-.682.432-.235.943-.235.539 0 .948.235.41.23.64.682.231.45.231 1.103 0 .651-.261 1.102-.258.447-.69.682-.432.232-.943.232-.535 0-.944-.232-.41-.235-.644-.682-.231-.45-.231-1.102zm1.06 0q0 .541.202.852.204.31.595.31.367 0 .58-.31.215-.31.215-.852 0-.546-.204-.857-.201-.31-.591-.31-.368 0-.584.31-.212.31-.212.857zm4.738-4.143v4.264q0 .242.007.587.012.345.027.675.019.33.042.538h-1.137v-4.282q0-1.11-.076-1.782zm4.509 4.359h-2.91v-.683h1.944q0-.398-.174-.576-.17-.182-.508-.182-.41 0-.61.285-.197.28-.197.947 0 .603.242.88.243.276.713.276.371 0 .727-.087.36-.087.713-.296l.08.857q-.41.208-.793.291-.379.088-.822.088-.5 0-.932-.224-.432-.224-.698-.663-.261-.44-.261-1.084 0-.63.227-1.091.231-.463.656-.717.424-.257 1.008-.257.477 0 .784.166.311.163.485.44.179.277.25.621.073.342.073.698v.155q.003.102.003.156zm3.809-1.934-.148.891q-.212-.11-.538-.235-.322-.125-.716-.125-.334 0-.463.114-.125.114-.125.227 0 .091.05.156.053.064.212.121.163.053.496.121.394.076.72.216.33.137.523.368.197.231.197.591 0 .364-.22.656-.22.292-.594.462-.372.17-.834.17-.508 0-.936-.128-.428-.133-.675-.307l.209-.929q.28.231.682.372.405.14.739.14.269 0 .436-.102.17-.107.17-.24 0-.166-.174-.29-.174-.13-.716-.247-.538-.118-.823-.28-.28-.164-.382-.368-.103-.205-.103-.444 0-.14.076-.34.076-.205.258-.402.185-.201.504-.334.322-.136.81-.136.463 0 .804.098.341.095.561.205zm.834 1.718q0-.652.257-1.103.262-.451.694-.682.432-.235.944-.235.538 0 .947.235.41.23.64.682.232.45.232 1.103 0 .651-.262 1.102-.258.447-.69.682-.432.232-.943.232-.535 0-.944-.232-.41-.235-.644-.682-.231-.45-.231-1.102zm1.06 0q0 .541.202.852.204.31.595.31.367 0 .58-.31.215-.31.215-.852 0-.546-.204-.857-.201-.31-.591-.31-.368 0-.584.31-.212.31-.212.857zm6.898-.58v2.5h-1.061v-2.16q0-.36-.042-.541-.038-.182-.133-.246-.094-.065-.261-.065-.212 0-.413.167-.197.163-.307.42v2.426h-1.061v-2.33q0-.558-.065-.948-.064-.39-.125-.588h.986q.064.11.106.266.045.155.072.284.348-.379.648-.5.303-.125.633-.125.371 0 .602.193.235.193.33.443.356-.382.67-.508.315-.128.615-.128.576 0 .8.371.223.368.223 1.069v2.5H42.26v-2.083q0-.383-.038-.58-.038-.201-.133-.273-.095-.076-.265-.076-.208 0-.406.14-.193.137-.314.372zm6.594.796h-2.91v-.683h1.944q0-.398-.175-.576-.17-.182-.508-.182-.409 0-.61.285-.197.28-.197.947 0 .603.243.88.242.276.712.276.372 0 .728-.087.36-.087.712-.296l.08.857q-.41.208-.792.291-.38.088-.823.088-.5 0-.932-.224-.432-.224-.697-.663-.262-.44-.262-1.084 0-.63.228-1.091.231-.463.655-.717.425-.257 1.008-.257.478 0 .785.166.31.163.485.44.178.277.25.621.072.342.072.698v.155q.004.102.004.156z" aria-label="Wholesome" style="font-weight:700;font-size:7.76116px;font-family:Andika;-inkscape-font-specification:&quot;Andika Bold&quot;;text-align:center;text-anchor:middle;opacity:.99;fill:#fc8028;stroke-width:.264585"/></svg>